<?xml version="1.0" encoding="utf-8"?>
<!-- Generator: Adobe Illustrator 24.1.0, SVG Export Plug-In . SVG Version: 6.00 Build 0)  -->
<svg version="1.1" id="Layer_1" xmlns="http://www.w3.org/2000/svg" xmlns:xlink="http://www.w3.org/1999/xlink" x="0px" y="0px"
	 viewBox="0 0 283.6 65.7" style="enable-background:new 0 0 283.6 65.7;" xml:space="preserve">
<style type="text/css">
	.st0{enable-background:new    ;}
	.st1{fill:#FEF1D0;}
	.st2{fill:#D78029;}
	.st3{fill:#58A5DB;}
	.st4{fill:#007250;}
</style>
<g class="st0">
	<path class="st1" d="M35.8,44.7c-3.1,1.8-6.4,4.3-9.4,6.9c-1.8-1-4.5-1.9-6.6-2.4v8.5c0,1.3,0.3,2.7,0.5,3.3v0.1l-1.1-0.2
		c-0.2-0.6-0.3-1.9-0.3-2.9v-9c-0.7-0.1-1.4-0.2-2.2-0.3v8.1c0,1.1,0.1,2.6,0.3,3.8l-0.2,0.1c-0.8-0.7-2-2.3-2.3-3.7h-0.2
		c-1,2-2.8,3.7-4.5,4.5l-0.2-0.1c0.7-1.4,1-3.4,1-5.5v-7.7H7.9c-2.5,0-3.9,0.9-4.5,2.3l-0.5-0.2c0.3-4.4,2.7-7.9,6.5-7.9h1.2v-7.8
		h-1c-2.5,0-3.9,0.9-4.5,2.3L4.5,37c0.4-4.1,2.1-7.7,5.9-7.7h0.2v-8.7c-4.3-3-5.2-3.4-6-3.4c-0.8,0-1.4,0.5-2.1,1.1l-0.6-0.7
		l6.5-5.5c2,1.4,4.5,3.2,8.4,6.1l2-1.4v-1.2c0-1.3-0.3-2.7-0.5-3.3v-0.1l1.1,0.2c0.2,0.6,0.3,1.9,0.3,2.9v0.9l6.1-4.2
		c7.8,1.5,10,6.7,10,12.7V44.7z M18.8,18.1l-2.2,1.5v23.4c0.8,0,1.4,0.1,2.2,0.2V18.1z M29.8,26.7V25c0-5.7-3.5-7.8-8.3-8.8
		l-1.7,1.2v13.9L29.8,26.7z M29.8,31.6v-3.8l-10,4.6v3.9L29.8,31.6z M29.8,46.5V32.6l-10,4.6v6c3.4,0.4,7.5,1.9,9.9,3.3L29.8,46.5z"
		/>
	<path class="st1" d="M57.5,47.4c-1.2,1.1-2.9,2.8-4,3.9c-1.7-1.3-3.8-2.8-4.9-3.6l-4.1,3.6c-1.5-1.2-3.8-2.9-5.6-4.1v-0.2
		c0.6-0.4,0.9-0.8,0.9-2.6v-5.9c1.9-0.9,3.5-1.8,4.6-2.5c-2.1-0.8-3.9-2.8-3.9-5.6c0-3.7,1.8-5.3,3.4-7.3c0.8-1,1.4-1.7,1.9-2.6
		c2.5,1.1,6.9,3.1,9.8,4.2v0.2c-0.6,0.5-0.9,1.1-0.9,2.5V46c0.5,0.5,2.1,1.4,2.7,1.2L57.5,47.4z M49.4,27.5c-2.2-1.4-3.2-2-4.3-2
		c-0.9,0-3.3,0.7-3.3,4.8c0,2.8,2.5,5,5.8,5c0.5,0,1.1-0.2,1.7-0.4V27.5z M49.4,45.7v-9.6c-0.6,0.2-1.1,0.4-1.8,0.4
		c-0.8,0-1.7-0.2-2.3-0.4c-0.3,0.5-0.4,1.3-0.4,2.2v7.4c0.9,0.6,1.6,1.1,2.6,1.7L49.4,45.7z"/>
</g>
<g class="st0">
	<path class="st1" d="M71.2,30.4H71c-1.3-1.4-3.2-4.2-3.9-5.7L66,25.8v19c2.5,1.6,3,1.8,3.8,1.8c0.4,0,0.7-0.3,1-0.7l0.5-0.5
		l0.9,0.8c-3.1,3.1-5.1,5.1-5.1,5.1c-2.2-1.5-4.6-2.8-7.3-4.1v-0.2c0.6-0.5,0.9-1,0.9-2.6V25.7c-1.1-0.8-1.8-1.1-2.6-1.2L58,24.3
		c1.2-1.1,2.8-2.5,4-3.9c1.5,1.2,3,2.6,4.3,3.7c1.8-1.6,2.4-2.2,3.9-3.7c1,1.6,2.8,4.1,4.4,5.8C73.5,27.3,72.2,29,71.2,30.4z"/>
</g>
<g class="st0">
	<path class="st1" d="M93.2,61.7c-2.8-0.1-4-2.3-4.9-4h-0.1c-0.3,0.8-1.6,2-2.5,2.1l-0.2-0.2c0.5-0.6,0.7-1.5,0.7-3.2v-8
		c-1.1,0.7-2.7,2.1-3.5,2.9c-1.7-1.1-5.2-3.4-7.2-4.5v-0.2c0.5-0.3,0.9-0.8,0.9-1.9V26.1c3.9-2.1,6.8-4.2,8.9-5.7l7.2,4.5v0.2
		c-0.6,0.4-0.9,0.9-0.9,2.4v30.6c0,2.2,0.5,2.9,1.6,3.4L93.2,61.7z M86.4,47.5V26.7c-1-0.7-3.2-2.1-4.4-2.9l-0.1,0.1v20.9
		c1.1,0.8,3.2,2.1,4.4,2.8L86.4,47.5z"/>
	<path class="st1" d="M115.3,47.4c-1.5,1.4-2.7,2.5-4,3.9c-1.7-1.3-3.2-2.5-4.8-3.5h-0.1l-4.1,3.5c-1.7-1.2-4.1-2.8-6-4v-0.2
		c0.6-0.4,0.9-1,0.9-2.1V25.7c-0.8-0.6-2-1.3-2.7-1.2l-0.1-0.1c1-1,2.8-2.6,4.1-3.9c1.6,1.2,3.6,2.7,5,3.5v0.2
		c-0.6,0.3-0.9,0.9-0.9,2.5v18.8c1,0.8,1.8,1.6,2.5,2c0,0,1.7-1.5,2-1.8V25.4c-0.6-0.5-1.1-0.8-1.8-1.3V24c1-0.9,2.8-2.5,3.9-3.6
		c1,0.9,2.9,2.4,4.2,3.3v0.2c-0.6,0.4-0.9,0.9-0.9,2.7v19.5c1,0.8,1.9,1.1,2.6,1.2L115.3,47.4z"/>
	<path class="st1" d="M123.4,35.8v8c3.2,2,4.5,2.6,5.4,2.6c0.4,0,0.7-0.2,1.1-0.6l0.5-0.5l0.8,0.8c-1.2,1.1-3.7,3.7-5,5.1
		c-2.2-1.4-6.4-3.8-9-5.1V46c0.6-0.5,0.9-0.9,0.9-2.6V24.6c2.7-0.7,6.3-2.2,9.4-4.2c1.2,2.6,3.9,7.8,5.4,10.1
		C130.9,31.9,126.3,34.2,123.4,35.8z M123.6,23.8l-0.3,0.1v10.5c1.6-0.8,3.7-1.8,4.8-2.5C126.8,29.8,124.5,25.8,123.6,23.8z"/>
	<path class="st1" d="M146.5,46.1l-5.1,5.1c-2-1.3-5.1-3.1-7-4V47c0.7-0.4,0.9-1.3,0.9-2.5v-18h-2.2v-0.3c2.8-1.8,5.7-6.7,7.2-10.6
		h0.4v7.9h5.4l-1.4,3h-4v18.4c2.5,1.6,2.7,1.5,3.5,1.5c0.4,0,0.9-0.3,1.1-0.5l0.4-0.5L146.5,46.1z"/>
	<path class="st1" d="M188.7,14c-1.3,1.8-3.4,4.5-5.2,6.4c-1.6-0.6-4.6-1.8-7.6-3.1v30.1c0.6,0.1,1.8,0.1,2.4,0.1
		c4.3,0,7.4-1.4,9.5-3l0.4,0.6c-2.6,3.6-6.4,6.9-14.3,6.9c-10.6,0-17.9-6.3-17.9-17.6c0-8,6-15,10.4-17.1l0.7,0.5
		c-3.2,3-4.9,8.5-4.9,12.8c0,4.8,0.9,8.4,2.8,11.1c1.8-1.3,2.2-2.9,2.2-5.3V21c4.5-3.4,7.4-6,10.5-8.7c4.4,1.8,6.4,2.5,8.6,2.5
		c0.5,0,1-0.3,1.7-1.3L188.7,14z M174.9,16.8l-0.6-0.3l-1.6,1.3v19.8c0,0-3.9,2.4-7.3,4.8c2.1,2.7,5.3,4.3,9.4,4.9V16.8z"/>
	<path class="st1" d="M206.9,24.9c-0.5,0.4-0.9,0.8-0.9,2.3v18.2c-2.4,1.4-6.2,3.7-9,5.8c-2.3-1.6-5-3.2-7.2-4.5v-0.2
		c0.6-0.3,0.9-0.9,0.9-2V26.2c2.7-1.5,6.3-3.8,9-5.8c2.2,1.4,4.9,3.1,7.2,4.3V24.9z M200.7,47.5V26.8c-1.2-0.8-3-1.9-4.3-2.7
		l-0.2,0.1v20.7c1.1,0.8,3.2,2.1,4.4,2.8L200.7,47.5z"/>
	<path class="st1" d="M229.4,47.4c-1.5,1.4-2.7,2.5-4,3.9c-1.7-1.3-3.2-2.5-4.8-3.5h-0.1l-4.1,3.5c-1.7-1.2-4.1-2.8-6-4v-0.2
		c0.6-0.4,0.9-1,0.9-2.1V25.7c-0.8-0.6-2-1.3-2.7-1.2l-0.1-0.1c1-1,2.8-2.6,4.1-3.9c1.6,1.2,3.6,2.7,5,3.5v0.2
		c-0.6,0.3-0.9,0.9-0.9,2.5v18.8c1,0.8,1.8,1.6,2.5,2c0,0,1.7-1.5,2-1.8V25.4c-0.6-0.5-1.1-0.8-1.8-1.3V24c1-0.9,2.8-2.5,3.9-3.6
		c1,0.9,2.9,2.4,4.2,3.3v0.2c-0.6,0.4-0.9,0.9-0.9,2.7v19.5c1,0.8,1.9,1.1,2.6,1.2L229.4,47.4z"/>
	<path class="st1" d="M243.1,30.4h-0.2c-1.3-1.4-3.2-4.2-3.9-5.7l-1.1,1.1v19c2.5,1.6,3,1.8,3.8,1.8c0.4,0,0.7-0.3,1-0.7l0.5-0.5
		l0.9,0.8c-3.1,3.1-5.1,5.1-5.1,5.1c-2.2-1.5-4.6-2.8-7.3-4.1v-0.2c0.6-0.5,0.9-1,0.9-2.6V25.7c-1.1-0.8-1.8-1.1-2.6-1.2l-0.1-0.2
		c1.2-1.1,2.8-2.5,4-3.9c1.5,1.2,3,2.6,4.3,3.7c1.8-1.6,2.4-2.2,3.9-3.7c1,1.6,2.8,4.1,4.4,5.8C245.4,27.3,244.1,29,243.1,30.4z"/>
	<path class="st1" d="M260.5,46.1l-5.1,5.1c-2-1.3-5.1-3.1-7-4V47c0.7-0.4,0.9-1.3,0.9-2.5v-18h-2.2v-0.3c2.8-1.8,5.7-6.7,7.2-10.6
		h0.4v7.9h5.4l-1.4,3h-4v18.4c2.5,1.6,2.7,1.5,3.5,1.5c0.4,0,0.9-0.3,1.1-0.5l0.4-0.5L260.5,46.1z"/>
	<path class="st1" d="M277.4,35.6c-0.6,0.4-0.9,0.9-0.9,2v9c-2.8,1-5.7,2.7-8.6,4.6c-1.5-1-3.4-2.1-5.3-2.6
		c-0.1,0.3-0.2,0.9-0.2,1.6c0,0.3,0,0.8,0,0.8c-0.5-0.2-1.4-0.4-1.4-0.4c0.2-6.2,4-11.1,6-13.5c-1.5-0.8-4.5-2.7-5.5-3.1v-0.2
		c0.6-0.3,0.9-0.8,0.9-1.9v-7.6c2.7-0.8,5.6-2.3,7.8-4c1.7,1.3,3.4,2.7,5.3,3.9c0.3-0.7,0.3-1.5,0.5-2.3c0.3,0.3,0.9,0.5,1.1,0.8
		c-0.3,2.2-1.6,5.3-5.1,9.8l5.2,2.9V35.6z M271.2,47.5V37.2l-1.6-0.8c-1.6,1.7-4.8,6-5.7,8.3c2.8,0.2,5.6,1.6,7.3,2.9L271.2,47.5z
		 M268.1,23.9l-0.2,0.1v8.3c0.5,0.3,1.4,0.8,1.9,1c1.3-1.3,3-3.7,3.8-5.3C271.4,27,269.1,24.9,268.1,23.9z"/>
</g>
<g class="st0">
	<path class="st2" d="M37.7,42.8c-3.1,1.8-6.4,4.3-9.4,6.9c-1.8-1-4.5-1.9-6.6-2.4v8.5c0,1.3,0.3,2.7,0.5,3.3v0.1l-1.1-0.2
		c-0.2-0.6-0.3-1.9-0.3-2.9v-9c-0.7-0.1-1.4-0.2-2.2-0.3v8.1c0,1.1,0.1,2.6,0.3,3.8l-0.2,0.1c-0.8-0.7-2-2.3-2.3-3.7h-0.2
		c-1,2-2.8,3.7-4.5,4.5l-0.2-0.1c0.7-1.4,1-3.4,1-5.5v-7.7H9.7c-2.5,0-3.9,0.9-4.5,2.3l-0.5-0.2c0.3-4.4,2.7-7.9,6.5-7.9h1.2V33h-1
		c-2.5,0-3.9,0.9-4.5,2.3l-0.5-0.2c0.4-4.1,2.1-7.7,5.9-7.7h0.2v-8.7c-4.3-3-5.2-3.4-6-3.4c-0.8,0-1.4,0.5-2.1,1.1l-0.6-0.7l6.5-5.5
		c2,1.4,4.5,3.2,8.4,6.1l2-1.4v-1.2c0-1.3-0.3-2.7-0.5-3.3v-0.1l1.1,0.2c0.2,0.6,0.3,1.9,0.3,2.9v0.9l6.1-4.2
		c7.8,1.5,10,6.7,10,12.7V42.8z M20.6,16.2l-2.2,1.5v23.4c0.8,0,1.4,0.1,2.2,0.2V16.2z M31.6,24.9v-1.7c0-5.7-3.5-7.8-8.3-8.8
		l-1.7,1.2v13.9L31.6,24.9z M31.6,29.7v-3.8l-10,4.6v3.9L31.6,29.7z M31.6,44.7V30.8l-10,4.6v6c3.4,0.4,7.5,1.9,9.9,3.3L31.6,44.7z"
		/>
	<path class="st2" d="M59.4,45.5c-1.2,1.1-2.9,2.8-4,3.9c-1.7-1.3-3.8-2.8-4.9-3.5l-4.1,3.5c-1.5-1.2-3.8-2.9-5.6-4.1v-0.2
		c0.6-0.4,0.9-0.8,0.9-2.6v-5.9c1.9-0.9,3.5-1.8,4.6-2.5c-2.1-0.8-3.9-2.8-3.9-5.6c0-3.7,1.8-5.3,3.4-7.3c0.8-1,1.4-1.7,1.9-2.6
		c2.5,1.1,6.9,3.1,9.8,4.2V23c-0.6,0.5-0.9,1.1-0.9,2.5v18.7c0.5,0.5,2.1,1.4,2.7,1.2L59.4,45.5z M51.2,25.6c-2.2-1.4-3.2-2-4.3-2
		c-0.9,0-3.3,0.7-3.3,4.8c0,2.8,2.5,5,5.8,5c0.5,0,1.1-0.2,1.7-0.4V25.6z M51.2,43.9v-9.6c-0.6,0.2-1.1,0.4-1.8,0.4
		c-0.8,0-1.7-0.2-2.3-0.4c-0.3,0.5-0.4,1.3-0.4,2.2v7.4c0.9,0.6,1.6,1.1,2.6,1.7L51.2,43.9z"/>
</g>
<g class="st0">
	<path class="st2" d="M73.1,28.5h-0.2c-1.3-1.4-3.2-4.2-3.9-5.7l-1.1,1.1v19c2.5,1.6,3,1.8,3.8,1.8c0.4,0,0.7-0.3,1-0.7l0.5-0.5
		l0.9,0.8c-3.1,3.1-5.1,5.1-5.1,5.1c-2.2-1.5-4.6-2.8-7.3-4.1v-0.2c0.6-0.5,0.9-1,0.9-2.6V23.8c-1.1-0.8-1.8-1.1-2.6-1.2l-0.1-0.2
		c1.2-1.1,2.8-2.5,4-3.9c1.5,1.2,3,2.6,4.3,3.7c1.8-1.6,2.4-2.2,3.9-3.7c1,1.6,2.8,4.1,4.4,5.8C75.4,25.4,74,27.2,73.1,28.5z"/>
</g>
<g class="st0">
	<path class="st2" d="M95,59.8c-2.8-0.1-4-2.3-4.9-4h-0.1c-0.3,0.8-1.6,2-2.5,2.1l-0.2-0.2c0.5-0.6,0.7-1.5,0.7-3.2v-8
		c-1.1,0.7-2.7,2.1-3.5,2.9C83,48.3,79.4,46,77.4,45v-0.2c0.5-0.3,0.9-0.8,0.9-1.9V24.3c3.9-2.1,6.8-4.2,8.9-5.7l7.2,4.5v0.2
		c-0.6,0.4-0.9,0.9-0.9,2.4v30.6c0,2.2,0.5,2.9,1.6,3.4L95,59.8z M88.2,45.7V24.9c-1-0.7-3.2-2.1-4.4-2.9l-0.1,0.1V43
		c1.1,0.8,3.2,2.1,4.4,2.8L88.2,45.7z"/>
	<path class="st2" d="M117.2,45.5c-1.5,1.4-2.7,2.5-4,3.9c-1.7-1.3-3.2-2.5-4.8-3.5h-0.1l-4.1,3.5c-1.7-1.2-4.1-2.8-6-4v-0.2
		c0.6-0.4,0.9-1,0.9-2.1V23.8c-0.8-0.6-2-1.3-2.7-1.2l-0.1-0.1c1-1,2.8-2.6,4.1-3.9c1.6,1.2,3.6,2.7,5,3.5v0.2
		c-0.6,0.3-0.9,0.9-0.9,2.5v18.8c1,0.8,1.8,1.6,2.5,2c0,0,1.7-1.5,2-1.8V23.6c-0.6-0.5-1.1-0.8-1.8-1.3v-0.1c1-0.9,2.8-2.5,3.9-3.6
		c1,0.9,2.9,2.4,4.2,3.3v0.2c-0.6,0.4-0.9,0.9-0.9,2.7v19.5c1,0.8,1.9,1.1,2.6,1.2L117.2,45.5z"/>
	<path class="st2" d="M125.2,33.9v8c3.2,2,4.5,2.6,5.4,2.6c0.4,0,0.7-0.2,1.1-0.6l0.5-0.5l0.8,0.8c-1.2,1.1-3.7,3.7-5,5.1
		c-2.2-1.4-6.4-3.8-9-5.1v-0.2c0.6-0.5,0.9-0.9,0.9-2.6V22.8c2.7-0.7,6.3-2.2,9.4-4.2c1.2,2.6,3.9,7.8,5.4,10.1
		C132.7,30.1,128.2,32.3,125.2,33.9z M125.5,22l-0.3,0.1v10.5c1.6-0.8,3.7-1.8,4.8-2.5C128.7,27.9,126.4,24,125.5,22z"/>
	<path class="st2" d="M148.4,44.3l-5.1,5.1c-2-1.3-5.1-3.1-7-4v-0.2c0.7-0.4,0.9-1.3,0.9-2.5v-18H135v-0.3c2.8-1.8,5.7-6.7,7.2-10.6
		h0.4v7.9h5.4l-1.4,3h-4V43c2.5,1.6,2.7,1.5,3.5,1.5c0.4,0,0.9-0.3,1.1-0.5l0.4-0.5L148.4,44.3z"/>
	<path class="st2" d="M190.5,12.2c-1.3,1.8-3.4,4.5-5.2,6.4c-1.6-0.6-4.6-1.8-7.6-3.1v30.1c0.6,0.1,1.8,0.1,2.4,0.1
		c4.3,0,7.4-1.4,9.5-3l0.4,0.6c-2.6,3.6-6.4,6.9-14.3,6.9c-10.6,0-17.9-6.3-17.9-17.6c0-8,6-15,10.4-17.1l0.7,0.5
		c-3.2,3-4.9,8.5-4.9,12.8c0,4.8,0.9,8.4,2.8,11.1c1.8-1.3,2.2-2.9,2.2-5.3V19.1c4.5-3.4,7.4-6,10.5-8.7c4.4,1.8,6.4,2.5,8.6,2.5
		c0.5,0,1-0.3,1.7-1.3L190.5,12.2z M176.7,15l-0.6-0.3l-1.6,1.3v19.8c0,0-3.9,2.4-7.3,4.8c2.1,2.7,5.3,4.3,9.4,4.9V15z"/>
	<path class="st2" d="M208.8,23.1c-0.5,0.4-0.9,0.8-0.9,2.3v18.2c-2.4,1.4-6.2,3.7-9,5.8c-2.3-1.6-5-3.2-7.2-4.5v-0.2
		c0.6-0.3,0.9-0.9,0.9-2V24.3c2.7-1.5,6.3-3.8,9-5.8c2.2,1.4,4.9,3.1,7.2,4.3V23.1z M202.5,45.6V25c-1.2-0.8-3-1.9-4.3-2.7l-0.2,0.1
		V43c1.1,0.8,3.2,2.1,4.4,2.8L202.5,45.6z"/>
	<path class="st2" d="M231.3,45.5c-1.5,1.4-2.7,2.5-4,3.9c-1.7-1.3-3.2-2.5-4.8-3.5h-0.1l-4.1,3.5c-1.7-1.2-4.1-2.8-6-4v-0.2
		c0.6-0.4,0.9-1,0.9-2.1V23.8c-0.8-0.6-2-1.3-2.7-1.2l-0.1-0.1c1-1,2.8-2.6,4.1-3.9c1.6,1.2,3.6,2.7,5,3.5v0.2
		c-0.6,0.3-0.9,0.9-0.9,2.5v18.8c1,0.8,1.8,1.6,2.5,2c0,0,1.7-1.5,2-1.8V23.6c-0.6-0.5-1.1-0.8-1.8-1.3v-0.1c1-0.9,2.8-2.5,3.9-3.6
		c1,0.9,2.9,2.4,4.2,3.3v0.2c-0.6,0.4-0.9,0.9-0.9,2.7v19.5c1,0.8,1.9,1.1,2.6,1.2L231.3,45.5z"/>
	<path class="st2" d="M245,28.5h-0.2c-1.3-1.4-3.2-4.2-3.9-5.7l-1.1,1.1v19c2.5,1.6,3,1.8,3.8,1.8c0.4,0,0.7-0.3,1-0.7l0.5-0.5
		l0.9,0.8c-3.1,3.1-5.1,5.1-5.1,5.1c-2.2-1.5-4.6-2.8-7.3-4.1v-0.2c0.6-0.5,0.9-1,0.9-2.6V23.8c-1.1-0.8-1.8-1.1-2.6-1.2l-0.1-0.2
		c1.2-1.1,2.8-2.5,4-3.9c1.5,1.2,3,2.6,4.3,3.7c1.8-1.6,2.4-2.2,3.9-3.7c1,1.6,2.8,4.1,4.4,5.8C247.3,25.4,245.9,27.2,245,28.5z"/>
	<path class="st2" d="M262.3,44.3l-5.1,5.1c-2-1.3-5.1-3.1-7-4v-0.2c0.7-0.4,0.9-1.3,0.9-2.5v-18H249v-0.3c2.8-1.8,5.7-6.7,7.2-10.6
		h0.4v7.9h5.4l-1.4,3h-4V43c2.5,1.6,2.7,1.5,3.5,1.5c0.4,0,0.9-0.3,1.1-0.5l0.4-0.5L262.3,44.3z"/>
	<path class="st2" d="M279.2,33.8c-0.6,0.4-0.9,0.9-0.9,2v9c-2.8,1-5.7,2.7-8.6,4.6c-1.5-1-3.4-2.1-5.3-2.6
		c-0.1,0.3-0.2,0.9-0.2,1.6c0,0.3,0,0.8,0,0.8c-0.5-0.2-1.4-0.4-1.4-0.4c0.2-6.2,4-11.1,6-13.5c-1.5-0.8-4.5-2.7-5.5-3.1V32
		c0.6-0.3,0.9-0.8,0.9-1.9v-7.6c2.7-0.8,5.6-2.3,7.8-4c1.7,1.3,3.4,2.7,5.3,3.9c0.3-0.7,0.3-1.5,0.5-2.3c0.3,0.3,0.9,0.5,1.1,0.8
		c-0.3,2.2-1.6,5.3-5.1,9.8l5.2,2.9V33.8z M273,45.7V35.3l-1.6-0.8c-1.6,1.7-4.8,6-5.7,8.3c2.8,0.2,5.6,1.6,7.3,2.9L273,45.7z
		 M269.9,22l-0.2,0.1v8.3c0.5,0.3,1.4,0.8,1.9,1c1.3-1.3,3-3.7,3.8-5.3C273.2,25.1,270.9,23.1,269.9,22z"/>
</g>
<g class="st0">
	<path class="st3" d="M39.5,41c-3.1,1.8-6.4,4.3-9.4,6.9c-1.8-1-4.5-1.9-6.6-2.4V54c0,1.3,0.3,2.7,0.5,3.3v0.1l-1.1-0.2
		c-0.2-0.6-0.3-1.9-0.3-2.9v-9c-0.7-0.1-1.4-0.2-2.2-0.3v8.1c0,1.1,0.1,2.6,0.3,3.8L20.4,57c-0.8-0.7-2-2.3-2.3-3.7h-0.2
		c-1,2-2.8,3.7-4.5,4.5l-0.2-0.1c0.7-1.4,1-3.4,1-5.5v-7.7h-2.7c-2.5,0-3.9,0.9-4.5,2.3l-0.5-0.2C6.9,42.4,9.2,39,13,39h1.2v-7.8h-1
		c-2.5,0-3.9,0.9-4.5,2.3l-0.5-0.2c0.4-4.1,2.1-7.7,5.9-7.7h0.2V17c-4.3-3-5.2-3.4-6-3.4c-0.8,0-1.4,0.5-2.1,1.1L5.5,14L12,8.5
		c2,1.4,4.5,3.2,8.4,6.1l2-1.4V12c0-1.3-0.3-2.7-0.5-3.3V8.6l1.1,0.2c0.2,0.6,0.3,1.9,0.3,2.9v0.9l6.1-4.2c7.8,1.5,10,6.7,10,12.7
		V41z M22.5,14.4l-2.2,1.5v23.4c0.8,0,1.4,0.1,2.2,0.2V14.4z M33.4,23v-1.7c0-5.7-3.5-7.8-8.3-8.8l-1.7,1.2v13.9L33.4,23z
		 M33.4,27.9v-3.8l-10,4.6v3.9L33.4,27.9z M33.4,42.9V28.9l-10,4.6v6c3.4,0.4,7.5,1.9,9.9,3.3L33.4,42.9z"/>
	<path class="st3" d="M61.2,43.7c-1.2,1.1-2.9,2.8-4,3.9c-1.7-1.3-3.8-2.8-4.9-3.5l-4.1,3.5c-1.5-1.2-3.8-2.9-5.6-4.1v-0.2
		c0.6-0.4,0.9-0.8,0.9-2.6v-5.9c1.9-0.9,3.5-1.8,4.6-2.5c-2.1-0.8-3.9-2.8-3.9-5.6c0-3.7,1.8-5.3,3.4-7.3c0.8-1,1.4-1.7,1.9-2.6
		c2.5,1.1,6.9,3.1,9.8,4.2v0.2c-0.6,0.5-0.9,1.1-0.9,2.5v18.7c0.5,0.5,2.1,1.4,2.7,1.2L61.2,43.7z M53.1,23.8c-2.2-1.4-3.2-2-4.3-2
		c-0.9,0-3.3,0.7-3.3,4.8c0,2.8,2.5,5,5.8,5c0.5,0,1.1-0.2,1.7-0.4V23.8z M53.1,42v-9.6c-0.6,0.2-1.1,0.4-1.8,0.4
		c-0.8,0-1.7-0.2-2.3-0.4c-0.3,0.5-0.4,1.3-0.4,2.2V42c0.9,0.6,1.6,1.1,2.6,1.7L53.1,42z"/>
</g>
<g class="st0">
	<path class="st3" d="M74.9,26.7h-0.2c-1.3-1.4-3.2-4.2-3.9-5.7l-1.1,1.1v19c2.5,1.6,3,1.8,3.8,1.8c0.4,0,0.7-0.3,1-0.7l0.5-0.5
		l0.9,0.8c-3.1,3.1-5.1,5.1-5.1,5.1c-2.2-1.5-4.6-2.8-7.3-4.1v-0.2c0.6-0.5,0.9-1,0.9-2.6V22c-1.1-0.8-1.8-1.1-2.6-1.2l-0.1-0.2
		c1.2-1.1,2.8-2.5,4-3.9c1.5,1.2,3,2.6,4.3,3.7c1.8-1.6,2.4-2.2,3.9-3.7c1,1.6,2.8,4.1,4.4,5.8C77.2,23.6,75.9,25.3,74.9,26.7z"/>
</g>
<g class="st0">
	<path class="st3" d="M96.9,58c-2.8-0.1-4-2.3-4.9-4h-0.1c-0.3,0.8-1.6,2-2.5,2.1L89.3,56c0.5-0.6,0.7-1.5,0.7-3.2v-8
		c-1.1,0.7-2.7,2.1-3.5,2.9c-1.7-1.1-5.2-3.4-7.2-4.5v-0.2c0.5-0.3,0.9-0.8,0.9-1.9V22.4c3.9-2.1,6.8-4.2,8.9-5.7l7.2,4.5v0.2
		c-0.6,0.4-0.9,0.9-0.9,2.4v30.6c0,2.2,0.5,2.9,1.6,3.4L96.9,58z M90,43.8V23c-1-0.7-3.2-2.1-4.4-2.9l-0.1,0.1v20.9
		c1.1,0.8,3.2,2.1,4.4,2.8L90,43.8z"/>
	<path class="st3" d="M119,43.7c-1.5,1.4-2.7,2.5-4,3.9c-1.7-1.3-3.2-2.5-4.8-3.5h-0.1l-4.1,3.5c-1.7-1.2-4.1-2.8-6-4v-0.2
		c0.6-0.4,0.9-1,0.9-2.1V22c-0.8-0.6-2-1.3-2.7-1.2l-0.1-0.1c1-1,2.8-2.6,4.1-3.9c1.6,1.2,3.6,2.7,5,3.5v0.2
		c-0.6,0.3-0.9,0.9-0.9,2.5v18.8c1,0.8,1.8,1.6,2.5,2c0,0,1.7-1.5,2-1.8V21.7c-0.6-0.5-1.1-0.8-1.8-1.3v-0.1c1-0.9,2.8-2.5,3.9-3.6
		c1,0.9,2.9,2.4,4.2,3.3v0.2c-0.6,0.4-0.9,0.9-0.9,2.7v19.5c1,0.8,1.9,1.1,2.6,1.2L119,43.7z"/>
	<path class="st3" d="M127,32.1v8c3.2,2,4.5,2.6,5.4,2.6c0.4,0,0.7-0.2,1.1-0.6l0.5-0.5l0.8,0.8c-1.2,1.1-3.7,3.7-5,5.1
		c-2.2-1.4-6.4-3.8-9-5.1v-0.2c0.6-0.5,0.9-0.9,0.9-2.6V20.9c2.7-0.7,6.3-2.2,9.4-4.2c1.2,2.6,3.9,7.8,5.4,10.1
		C134.6,28.2,130,30.5,127,32.1z M127.3,20.1l-0.3,0.1v10.5c1.6-0.8,3.7-1.8,4.8-2.5C130.5,26.1,128.2,22.1,127.3,20.1z"/>
	<path class="st3" d="M150.2,42.4l-5.1,5.1c-2-1.3-5.1-3.1-7-4v-0.2c0.7-0.4,0.9-1.3,0.9-2.5v-18h-2.2v-0.3
		c2.8-1.8,5.7-6.7,7.2-10.6h0.4v7.9h5.4l-1.4,3h-4v18.4c2.5,1.6,2.7,1.5,3.5,1.5c0.4,0,0.9-0.3,1.1-0.5l0.4-0.5L150.2,42.4z"/>
	<path class="st3" d="M192.4,10.3c-1.3,1.8-3.4,4.5-5.2,6.4c-1.6-0.6-4.6-1.8-7.6-3.1v30.1c0.6,0.1,1.8,0.1,2.4,0.1
		c4.3,0,7.4-1.4,9.5-3l0.4,0.6c-2.6,3.6-6.4,6.9-14.3,6.9c-10.6,0-17.9-6.3-17.9-17.6c0-8,6-15,10.4-17.1l0.7,0.5
		c-3.2,3-4.9,8.5-4.9,12.8c0,4.8,0.9,8.4,2.8,11.1c1.8-1.3,2.2-2.9,2.2-5.3V17.3c4.5-3.4,7.4-6,10.5-8.7c4.4,1.8,6.4,2.5,8.6,2.5
		c0.5,0,1-0.3,1.7-1.3L192.4,10.3z M178.6,13.1l-0.6-0.3l-1.6,1.3v19.8c0,0-3.9,2.4-7.3,4.8c2.1,2.7,5.3,4.3,9.4,4.9V13.1z"/>
	<path class="st3" d="M210.6,21.2c-0.5,0.4-0.9,0.8-0.9,2.3v18.2c-2.4,1.4-6.2,3.7-9,5.8c-2.3-1.6-5-3.2-7.2-4.5v-0.2
		c0.6-0.3,0.9-0.9,0.9-2V22.5c2.7-1.5,6.3-3.8,9-5.8c2.2,1.4,4.9,3.1,7.2,4.3V21.2z M204.4,43.8V23.1c-1.2-0.8-3-1.9-4.3-2.7
		l-0.2,0.1v20.7c1.1,0.8,3.2,2.1,4.4,2.8L204.4,43.8z"/>
	<path class="st3" d="M233.1,43.7c-1.5,1.4-2.7,2.5-4,3.9c-1.7-1.3-3.2-2.5-4.8-3.5h-0.1l-4.1,3.5c-1.7-1.2-4.1-2.8-6-4v-0.2
		c0.6-0.4,0.9-1,0.9-2.1V22c-0.8-0.6-2-1.3-2.7-1.2l-0.1-0.1c1-1,2.8-2.6,4.1-3.9c1.6,1.2,3.6,2.7,5,3.5v0.2
		c-0.6,0.3-0.9,0.9-0.9,2.5v18.8c1,0.8,1.8,1.6,2.5,2c0,0,1.7-1.5,2-1.8V21.7c-0.6-0.5-1.1-0.8-1.8-1.3v-0.1c1-0.9,2.8-2.5,3.9-3.6
		c1,0.9,2.9,2.4,4.2,3.3v0.2c-0.6,0.4-0.9,0.9-0.9,2.7v19.5c1,0.8,1.9,1.1,2.6,1.2L233.1,43.7z"/>
	<path class="st3" d="M246.8,26.7h-0.2c-1.3-1.4-3.2-4.2-3.9-5.7l-1.1,1.1v19c2.5,1.6,3,1.8,3.8,1.8c0.4,0,0.7-0.3,1-0.7l0.5-0.5
		l0.9,0.8c-3.1,3.1-5.1,5.1-5.1,5.1c-2.2-1.5-4.6-2.8-7.3-4.1v-0.2c0.6-0.5,0.9-1,0.9-2.6V22c-1.1-0.8-1.8-1.1-2.6-1.2l-0.1-0.2
		c1.2-1.1,2.8-2.5,4-3.9c1.5,1.2,3,2.6,4.3,3.7c1.8-1.6,2.4-2.2,3.9-3.7c1,1.6,2.8,4.1,4.4,5.8C249.1,23.6,247.8,25.3,246.8,26.7z"
		/>
	<path class="st3" d="M264.2,42.4l-5.1,5.1c-2-1.3-5.1-3.1-7-4v-0.2c0.7-0.4,0.9-1.3,0.9-2.5v-18h-2.2v-0.3
		c2.8-1.8,5.7-6.7,7.2-10.6h0.4v7.9h5.4l-1.4,3h-4v18.4c2.5,1.6,2.7,1.5,3.5,1.5c0.4,0,0.9-0.3,1.1-0.5l0.4-0.5L264.2,42.4z"/>
	<path class="st3" d="M281.1,31.9c-0.6,0.4-0.9,0.9-0.9,2v9c-2.8,1-5.7,2.7-8.6,4.6c-1.5-1-3.4-2.1-5.3-2.6
		c-0.1,0.3-0.2,0.9-0.2,1.6c0,0.3,0,0.8,0,0.8c-0.5-0.2-1.4-0.4-1.4-0.4c0.2-6.2,4-11.1,6-13.5c-1.5-0.8-4.5-2.7-5.5-3.1v-0.2
		c0.6-0.3,0.9-0.8,0.9-1.9v-7.6c2.7-0.8,5.6-2.3,7.8-4c1.7,1.3,3.4,2.7,5.3,3.9c0.3-0.7,0.3-1.5,0.5-2.3c0.3,0.3,0.9,0.5,1.1,0.8
		c-0.3,2.2-1.6,5.3-5.1,9.8l5.2,2.9V31.9z M274.9,43.8V33.5l-1.6-0.8c-1.6,1.7-4.8,6-5.7,8.3c2.8,0.2,5.6,1.6,7.3,2.9L274.9,43.8z
		 M271.7,20.2l-0.2,0.1v8.3c0.5,0.3,1.4,0.8,1.9,1c1.3-1.3,3-3.7,3.8-5.3C275.1,23.3,272.8,21.2,271.7,20.2z"/>
</g>
<g class="st0">
	<path class="st4" d="M41.4,39.1c-3.1,1.8-6.4,4.3-9.4,6.9c-1.8-1-4.5-1.9-6.6-2.4v8.5c0,1.3,0.3,2.7,0.5,3.3v0.1l-1.1-0.2
		c-0.2-0.6-0.3-1.9-0.3-2.9v-9c-0.7-0.1-1.4-0.2-2.2-0.3v8.1c0,1.1,0.1,2.6,0.3,3.8l-0.2,0.1c-0.8-0.7-2-2.3-2.3-3.7h-0.2
		c-1,2-2.8,3.7-4.5,4.5L15,56c0.7-1.4,1-3.4,1-5.5v-7.7h-2.7c-2.5,0-3.9,0.9-4.5,2.3L8.4,45c0.3-4.4,2.7-7.9,6.5-7.9h1.2v-7.8h-1
		c-2.5,0-3.9,0.9-4.5,2.3L10,31.4c0.4-4.1,2.1-7.7,5.9-7.7h0.2v-8.7c-4.3-3-5.2-3.4-6-3.4c-0.8,0-1.4,0.5-2.1,1.1l-0.6-0.7l6.5-5.5
		c2,1.4,4.5,3.2,8.4,6.1l2-1.4v-1.2c0-1.3-0.3-2.7-0.5-3.3V6.7L25,6.9c0.2,0.6,0.3,1.9,0.3,2.9v0.9l6.1-4.2c7.8,1.5,10,6.7,10,12.7
		V39.1z M24.3,12.6L22.1,14v23.4c0.8,0,1.4,0.1,2.2,0.2V12.6z M35.3,21.2v-1.7c0-5.7-3.5-7.8-8.3-8.8l-1.7,1.2v13.9L35.3,21.2z
		 M35.3,26v-3.8l-10,4.6v3.9L35.3,26z M35.3,41V27.1l-10,4.6v6c3.4,0.4,7.5,1.9,9.9,3.3L35.3,41z"/>
	<path class="st4" d="M63.1,41.8c-1.2,1.1-2.9,2.8-4,3.9c-1.7-1.3-3.8-2.8-4.9-3.5l-4.1,3.5c-1.5-1.2-3.8-2.9-5.6-4.1v-0.2
		c0.6-0.4,0.9-0.8,0.9-2.6v-5.9c1.9-0.9,3.5-1.8,4.6-2.5c-2.1-0.8-3.9-2.8-3.9-5.6c0-3.7,1.8-5.3,3.4-7.3c0.8-1,1.4-1.7,1.9-2.6
		c2.5,1.1,6.9,3.1,9.8,4.2v0.2c-0.6,0.5-0.9,1.1-0.9,2.5v18.7c0.5,0.5,2.1,1.4,2.7,1.2L63.1,41.8z M54.9,21.9c-2.2-1.4-3.2-2-4.3-2
		c-0.9,0-3.3,0.7-3.3,4.8c0,2.8,2.5,5,5.8,5c0.5,0,1.1-0.2,1.7-0.4V21.9z M54.9,40.2v-9.6c-0.6,0.2-1.1,0.4-1.8,0.4
		c-0.8,0-1.7-0.2-2.3-0.4c-0.3,0.5-0.4,1.3-0.4,2.2v7.4c0.9,0.6,1.6,1.1,2.6,1.7L54.9,40.2z"/>
</g>
<g class="st0">
	<path class="st4" d="M76.7,24.8h-0.2c-1.3-1.4-3.2-4.2-3.9-5.7l-1.1,1.1v19c2.5,1.6,3,1.8,3.8,1.8c0.4,0,0.7-0.3,1-0.7l0.5-0.5
		l0.9,0.8c-3.1,3.1-5.1,5.1-5.1,5.1c-2.2-1.5-4.6-2.8-7.3-4.1v-0.2c0.6-0.5,0.9-1,0.9-2.6V20.1c-1.1-0.8-1.8-1.1-2.6-1.2l-0.1-0.2
		c1.2-1.1,2.8-2.5,4-3.9c1.5,1.2,3,2.6,4.3,3.7c1.8-1.6,2.4-2.2,3.9-3.7c1,1.6,2.8,4.1,4.4,5.8C79,21.7,77.7,23.5,76.7,24.8z"/>
</g>
<g class="st0">
	<path class="st4" d="M98.7,56.1c-2.8-0.1-4-2.3-4.9-4h-0.1c-0.3,0.8-1.6,2-2.5,2.1l-0.2-0.2c0.5-0.6,0.7-1.5,0.7-3.2v-8
		c-1.1,0.7-2.7,2.1-3.5,2.9c-1.7-1.1-5.2-3.4-7.2-4.5v-0.2c0.5-0.3,0.9-0.8,0.9-1.9V20.6c3.9-2.1,6.8-4.2,8.9-5.7l7.2,4.5v0.2
		c-0.6,0.4-0.9,0.9-0.9,2.4v30.6c0,2.2,0.5,2.9,1.6,3.4L98.7,56.1z M91.9,42V21.2c-1-0.7-3.2-2.1-4.4-2.9l-0.1,0.1v20.9
		c1.1,0.8,3.2,2.1,4.4,2.8L91.9,42z"/>
	<path class="st4" d="M120.9,41.8c-1.5,1.4-2.7,2.5-4,3.9c-1.7-1.3-3.2-2.5-4.8-3.5h-0.1l-4.1,3.5c-1.7-1.2-4.1-2.8-6-4v-0.2
		c0.6-0.4,0.9-1,0.9-2.1V20.1c-0.8-0.6-2-1.3-2.7-1.2l-0.1-0.1c1-1,2.8-2.6,4.1-3.9c1.6,1.2,3.6,2.7,5,3.5v0.2
		c-0.6,0.3-0.9,0.9-0.9,2.5V40c1,0.8,1.8,1.6,2.5,2c0,0,1.7-1.5,2-1.8V19.9c-0.6-0.5-1.1-0.8-1.8-1.3v-0.1c1-0.9,2.8-2.5,3.9-3.6
		c1,0.9,2.9,2.4,4.2,3.3v0.2c-0.6,0.4-0.9,0.9-0.9,2.7v19.5c1,0.8,1.9,1.1,2.6,1.2L120.9,41.8z"/>
	<path class="st4" d="M128.9,30.2v8c3.2,2,4.5,2.6,5.4,2.6c0.4,0,0.7-0.2,1.1-0.6l0.5-0.5l0.8,0.8c-1.2,1.1-3.7,3.7-5,5.1
		c-2.2-1.4-6.4-3.8-9-5.1v-0.2c0.6-0.5,0.9-0.9,0.9-2.6V19.1c2.7-0.7,6.3-2.2,9.4-4.2c1.2,2.6,3.9,7.8,5.4,10.1
		C136.4,26.4,131.9,28.6,128.9,30.2z M129.2,18.3l-0.3,0.1v10.5c1.6-0.8,3.7-1.8,4.8-2.5C132.3,24.2,130,20.3,129.2,18.3z"/>
	<path class="st4" d="M152.1,40.6l-5.1,5.1c-2-1.3-5.1-3.1-7-4v-0.2c0.7-0.4,0.9-1.3,0.9-2.5V21h-2.2v-0.3c2.8-1.8,5.7-6.7,7.2-10.6
		h0.4v7.9h5.4l-1.4,3h-4v18.4c2.5,1.6,2.7,1.5,3.5,1.5c0.4,0,0.9-0.3,1.1-0.5l0.4-0.5L152.1,40.6z"/>
	<path class="st4" d="M194.2,8.5c-1.3,1.8-3.4,4.5-5.2,6.4c-1.6-0.6-4.6-1.8-7.6-3.1v30.1c0.6,0.1,1.8,0.1,2.4,0.1
		c4.3,0,7.4-1.4,9.5-3l0.4,0.6c-2.6,3.6-6.4,6.9-14.3,6.9c-10.6,0-17.9-6.3-17.9-17.6c0-8,6-15,10.4-17.1l0.7,0.5
		c-3.2,3-4.9,8.5-4.9,12.8c0,4.8,0.9,8.4,2.8,11.1c1.8-1.3,2.2-2.9,2.2-5.3V15.4c4.5-3.4,7.4-6,10.5-8.7c4.4,1.8,6.4,2.5,8.6,2.5
		c0.5,0,1-0.3,1.7-1.3L194.2,8.5z M180.4,11.3l-0.6-0.3l-1.6,1.3v19.8c0,0-3.9,2.4-7.3,4.8c2.1,2.7,5.3,4.3,9.4,4.9V11.3z"/>
	<path class="st4" d="M212.5,19.4c-0.5,0.4-0.9,0.8-0.9,2.3v18.2c-2.4,1.4-6.2,3.7-9,5.8c-2.3-1.6-5-3.2-7.2-4.5V41
		c0.6-0.3,0.9-0.9,0.9-2V20.6c2.7-1.5,6.3-3.8,9-5.8c2.2,1.4,4.9,3.1,7.2,4.3V19.4z M206.2,41.9V21.3c-1.2-0.8-3-1.9-4.3-2.7
		l-0.2,0.1v20.7c1.1,0.8,3.2,2.1,4.4,2.8L206.2,41.9z"/>
	<path class="st4" d="M235,41.8c-1.5,1.4-2.7,2.5-4,3.9c-1.7-1.3-3.2-2.5-4.8-3.5h-0.1l-4.1,3.5c-1.7-1.2-4.1-2.8-6-4v-0.2
		c0.6-0.4,0.9-1,0.9-2.1V20.1c-0.8-0.6-2-1.3-2.7-1.2l-0.1-0.1c1-1,2.8-2.6,4.1-3.9c1.6,1.2,3.6,2.7,5,3.5v0.2
		c-0.6,0.3-0.9,0.9-0.9,2.5V40c1,0.8,1.8,1.6,2.5,2c0,0,1.7-1.5,2-1.8V19.9c-0.6-0.5-1.1-0.8-1.8-1.3v-0.1c1-0.9,2.8-2.5,3.9-3.6
		c1,0.9,2.9,2.4,4.2,3.3v0.2c-0.6,0.4-0.9,0.9-0.9,2.7v19.5c1,0.8,1.9,1.1,2.6,1.2L235,41.8z"/>
	<path class="st4" d="M248.6,24.8h-0.2c-1.3-1.4-3.2-4.2-3.9-5.7l-1.1,1.1v19c2.5,1.6,3,1.8,3.8,1.8c0.4,0,0.7-0.3,1-0.7l0.5-0.5
		l0.9,0.8c-3.1,3.1-5.1,5.1-5.1,5.1c-2.2-1.5-4.6-2.8-7.3-4.1v-0.2c0.6-0.5,0.9-1,0.9-2.6V20.1c-1.1-0.8-1.8-1.1-2.6-1.2l-0.1-0.2
		c1.2-1.1,2.8-2.5,4-3.9c1.5,1.2,3,2.6,4.3,3.7c1.8-1.6,2.4-2.2,3.9-3.7c1,1.6,2.8,4.1,4.4,5.8C250.9,21.7,249.6,23.5,248.6,24.8z"
		/>
	<path class="st4" d="M266,40.6l-5.1,5.1c-2-1.3-5.1-3.1-7-4v-0.2c0.7-0.4,0.9-1.3,0.9-2.5V21h-2.2v-0.3c2.8-1.8,5.7-6.7,7.2-10.6
		h0.4v7.9h5.4l-1.4,3h-4v18.4c2.5,1.6,2.7,1.5,3.5,1.5c0.4,0,0.9-0.3,1.1-0.5l0.4-0.5L266,40.6z"/>
	<path class="st4" d="M282.9,30.1c-0.6,0.4-0.9,0.9-0.9,2v9c-2.8,1-5.7,2.7-8.6,4.6c-1.5-1-3.4-2.1-5.3-2.6
		c-0.1,0.3-0.2,0.9-0.2,1.6c0,0.3,0,0.8,0,0.8c-0.5-0.2-1.4-0.4-1.4-0.4c0.2-6.2,4-11.1,6-13.5c-1.5-0.8-4.5-2.7-5.5-3.1v-0.2
		c0.6-0.3,0.9-0.8,0.9-1.9v-7.6c2.7-0.8,5.6-2.3,7.8-4c1.7,1.3,3.4,2.7,5.3,3.9c0.3-0.7,0.3-1.5,0.5-2.3c0.3,0.3,0.9,0.5,1.1,0.8
		c-0.3,2.2-1.6,5.3-5.1,9.8l5.2,2.9V30.1z M276.7,42V31.7l-1.6-0.8c-1.6,1.7-4.8,6-5.7,8.3c2.8,0.2,5.6,1.6,7.3,2.9L276.7,42z
		 M273.6,18.3l-0.2,0.1v8.3c0.5,0.3,1.4,0.8,1.9,1c1.3-1.3,3-3.7,3.8-5.3C276.9,21.4,274.6,19.4,273.6,18.3z"/>
</g>
</svg>
