<svg xmlns="http://www.w3.org/2000/svg" viewBox="0 0 284.51 43.86"><defs><style>.cls-1{fill:#34363a;}.cls-2{fill:#fef1d0;}.cls-3{fill:#d78029;}.cls-4{fill:#58a5db;}.cls-5{fill:#007250;}</style></defs><g id="SLATE"><path class="cls-1" d="M10,162.63q.45-3.07.67-5.8c.14-1.82.22-3.54.22-5.16,0-1.87-.08-3.66-.23-5.36s-.34-3.33-.54-4.87l-.12-.68a11.82,11.82,0,0,0,2.44-.57A18.1,18.1,0,0,0,15.07,139q-.46,2.94-.69,5.38c-.16,1.63-.23,3.12-.23,4.45v.67c0,.2,0,.42,0,.66s0,.52,0,.84,0,.72.06,1.18l.38.19a13.33,13.33,0,0,0,4.47.9,8.81,8.81,0,0,0,2.61-.38,7.62,7.62,0,0,0,2.21-1.1A6,6,0,0,0,25.56,150a6.63,6.63,0,0,0,.89-2.32c.08-.48.14-.93.19-1.35s.07-.82.07-1.2a9,9,0,0,0-.22-2,10.37,10.37,0,0,0-.59-1.81,9.34,9.34,0,0,0-.83-1.57,10,10,0,0,0-1-1.25,6,6,0,0,0-1.17-.92,8.7,8.7,0,0,0-1.62-.78,11.85,11.85,0,0,0-2-.55,12.76,12.76,0,0,0-2.29-.2,10.84,10.84,0,0,0-2.2.25,15.64,15.64,0,0,0-2.34.72,18.86,18.86,0,0,0-2.38,1.12,19.8,19.8,0,0,0-2.31,1.5l1.34-5.25,2.37-1,.88-.34c1.2-.32,2.23-.56,3.07-.71a12.43,12.43,0,0,1,2.09-.23,11.58,11.58,0,0,1,2.13.23,14.88,14.88,0,0,1,2.45.7,17.14,17.14,0,0,1,2.45,1.17,11.59,11.59,0,0,1,2.16,1.59,10.85,10.85,0,0,1,1.46,1.74A12.18,12.18,0,0,1,30.1,142a12.19,12.19,0,0,1,.26,2.53,11.84,11.84,0,0,1-.25,2.08,14.88,14.88,0,0,1-.69,2.29,8.48,8.48,0,0,1-1.31,2.21,10.49,10.49,0,0,1-2,1.88,9.78,9.78,0,0,1-2.71,1.33,11.47,11.47,0,0,1-3.56.5,16.25,16.25,0,0,1-2.62-.21,22.84,22.84,0,0,1-2.58-.57l-.3-.06c.1,1.79.2,3.21.28,4.27a10.09,10.09,0,0,0,.28,2l.16.46a12.57,12.57,0,0,0-1.71.3,12.38,12.38,0,0,0-1.38.46,9.38,9.38,0,0,0-1.1.55C10.55,162.27,10.27,162.46,10,162.63Z" transform="translate(-7.81 -126.43)"/><path class="cls-1" d="M43.3,162.63a33.14,33.14,0,0,1-3.63-1.69,12.85,12.85,0,0,1-3.61-2.89,7,7,0,0,1-1.29-3.71v-.1A5.65,5.65,0,0,1,37,150.31a13.31,13.31,0,0,1,8.25-2.57q-6.12,2.25-7.09,5a3.49,3.49,0,0,0-.2,1.12,2.42,2.42,0,0,0,.65,1.65,12,12,0,0,0,2.91,2.32,18.36,18.36,0,0,0,6,2Zm-8.06-16.86a5.77,5.77,0,0,1,1.76-2.2l.94-.77L42.52,140a14.59,14.59,0,0,1,2.83,1.16,12.63,12.63,0,0,1,3,2.19A10.12,10.12,0,0,1,50.85,147a12,12,0,0,1,.84,4.21,56.86,56.86,0,0,0,.74,8.83l.16.72a11.31,11.31,0,0,0-2.45.56,10.56,10.56,0,0,0-2.6,1.29,78.47,78.47,0,0,0,.76-10.78v-.54a6.88,6.88,0,0,0-.72-3.49,8.53,8.53,0,0,0-3.5-2.91,29,29,0,0,0-5.94-1.8,3.44,3.44,0,0,0-.32,1.74,11,11,0,0,0,.26,2.05Z" transform="translate(-7.81 -126.43)"/><path class="cls-1" d="M57.61,162.63q.38-3,.57-5.51c.13-1.65.19-3.15.19-4.48,0-1.09,0-2.1,0-3s-.06-1.84-.11-2.69-.12-1.67-.21-2.46-.19-1.59-.31-2.39l-.1-.32a10.78,10.78,0,0,0,2.44-.57A17.84,17.84,0,0,0,62.52,140l.14-.08c-.13.38-.27.81-.42,1.27l-.44,1.45L66.2,140a12.43,12.43,0,0,1,2,.77,14.8,14.8,0,0,1,2.42,1.44,14.64,14.64,0,0,1,2.3,2.11A8.32,8.32,0,0,1,74.52,147l-3.63,1.48A10.71,10.71,0,0,0,69,146a11.08,11.08,0,0,0-2.18-1.68,8.83,8.83,0,0,0-2.21-.94,7.36,7.36,0,0,0-2-.3,6,6,0,0,0-.84.07h0c0,.49-.09,1.28-.11,2.35s0,2.46,0,4.15v.7a49.31,49.31,0,0,0,.84,9.75l.16.72a13.51,13.51,0,0,0-1.54.3c-.51.14-1,.3-1.44.47s-.85.37-1.21.56A5.52,5.52,0,0,0,57.61,162.63Z" transform="translate(-7.81 -126.43)"/><path class="cls-1" d="M89,170.29a68.72,68.72,0,0,0,.9-11Q90,155.54,90,154v-.64c0-.76,0-1.42,0-2a11.93,11.93,0,0,0-.1-1.45,5.3,5.3,0,0,0-.26-1.14,3.55,3.55,0,0,0-.54-1,8.37,8.37,0,0,0-1.43-1.62A9.43,9.43,0,0,0,85.72,145a17.82,17.82,0,0,0-2.54-1c-1-.32-2.1-.66-3.4-1a14,14,0,0,0-.89,1.9,12.48,12.48,0,0,0-.55,1.82,12.16,12.16,0,0,0-.28,1.71c0,.56-.07,1.1-.07,1.62a8.66,8.66,0,0,0,.34,2.44,8.8,8.8,0,0,0,1,2.2,8.44,8.44,0,0,0,1.56,1.88A8.79,8.79,0,0,0,83,157.91a22,22,0,0,0,2.56,1c1,.32,2.12.63,3.4.91l-4.25,2.79a7.72,7.72,0,0,1-.9-.29c-.4-.16-.87-.36-1.39-.62a17.48,17.48,0,0,1-1.68-1A13.29,13.29,0,0,1,79,159.39a11.11,11.11,0,0,1-1.55-1.77,8.67,8.67,0,0,1-1.12-2.21,16.6,16.6,0,0,1-.62-2.18,8.58,8.58,0,0,1-.2-2.08,10.36,10.36,0,0,1,.26-2.31,12.88,12.88,0,0,1,.69-2.23,10.3,10.3,0,0,1,1-1.9,4.71,4.71,0,0,1,1.22-1.28l.7-.61L84,140a8,8,0,0,1,1.37.49,17.47,17.47,0,0,1,1.62.81q.83.47,1.59,1a8.33,8.33,0,0,1,1.26,1.06c.59.63,1.1,1.2,1.53,1.73a8.78,8.78,0,0,1,1,1.6,6.62,6.62,0,0,1,.61,1.68,8.65,8.65,0,0,1,.2,2c0,.52,0,1.38-.1,2.57s-.1,2.81-.1,4.85v1.65a35,35,0,0,0,.42,5.56,10.46,10.46,0,0,0,3.66-2.11,4.76,4.76,0,0,0,.3.94,11.86,11.86,0,0,0,.55,1.17,12.17,12.17,0,0,0,1.84,2.57l-.53-.05c-.25,0-.74,0-1.45.12s-1.68.2-2.9.39a9.07,9.07,0,0,0-1.18.25,15.13,15.13,0,0,0-1.55.49q-.82.3-1.65.69A10.34,10.34,0,0,0,89,170.29Z" transform="translate(-7.81 -126.43)"/><path class="cls-1" d="M99.06,141.8a9.46,9.46,0,0,0,1.62-.29,11.79,11.79,0,0,0,1.42-.48c.44-.18.83-.37,1.17-.55s.62-.36.85-.52a69.41,69.41,0,0,0-.78,10.17c0,.57,0,1.09.07,1.54s0,.87.09,1.24a4.78,4.78,0,0,0,.2,1,3.62,3.62,0,0,0,.38.85,7.73,7.73,0,0,0,3.19,2.78,17.69,17.69,0,0,0,2.62,1c1,.31,2.22.61,3.64.91,0-.5.09-1.28.11-2.36s0-2.46,0-4.14v-.7q0-2.82-.21-5.25a29.71,29.71,0,0,0-.63-4.51l-.16-.72a9.17,9.17,0,0,0,1.61-.29,12,12,0,0,0,1.43-.48c.43-.18.82-.37,1.16-.55a8.87,8.87,0,0,0,.85-.52q-.37,3-.57,5.5c-.13,1.66-.19,3.15-.19,4.49,0,1.09,0,2.11,0,3.05s.05,1.83.1,2.68.12,1.67.2,2.45.2,1.59.33,2.39l.1.32a11.15,11.15,0,0,0-2.43.58,15.45,15.45,0,0,0-2.48,1.13l-.14.08.42-1.27c.15-.47.29-1,.44-1.46l-4.39,2.73a12.1,12.1,0,0,1-2-.79,15.13,15.13,0,0,1-2.43-1.47,13.5,13.5,0,0,1-2.27-2.09,8.69,8.69,0,0,1-1.58-2.71,12,12,0,0,1-.84-4.22c-.07-1.95-.16-3.66-.29-5.12a36.68,36.68,0,0,0-.46-3.71Z" transform="translate(-7.81 -126.43)"/><path class="cls-1" d="M131.93,162.71a12.63,12.63,0,0,1-2.85-1.17,14.2,14.2,0,0,1-3-2.18,9.63,9.63,0,0,1-2.47-3.71,14,14,0,0,1-.86-4.22v-.08a11.25,11.25,0,0,1,1-4.43,11,11,0,0,1,2-3.11,9.81,9.81,0,0,1,1.2-1.09l4.22-2.76a31.59,31.59,0,0,1,3.63,1.68,13,13,0,0,1,3.61,2.89,7,7,0,0,1,1.28,3.71v.1a5.62,5.62,0,0,1-2.24,3.94,13.38,13.38,0,0,1-8.25,2.56q6.22-2.11,7.36-4.91a2.84,2.84,0,0,0,.25-1.15v-.08a2.47,2.47,0,0,0-.71-1.64,9.63,9.63,0,0,0-3.17-2.33,18,18,0,0,0-5.74-2,14,14,0,0,0-1.38,3.78,14.62,14.62,0,0,0-.48,3.41,7.79,7.79,0,0,0,.1,1.3,9.06,9.06,0,0,0,1.48,3.59,8.52,8.52,0,0,0,3.47,2.91,29.54,29.54,0,0,0,5.92,1.83l0,0a3.4,3.4,0,0,0,.32-1.75,10.08,10.08,0,0,0-.26-2l2.85,1.12a6,6,0,0,1-1.76,2.21c-.62.49-.93.75-.93.76Z" transform="translate(-7.81 -126.43)"/><path class="cls-1" d="M145.17,162.63c.3-2,.51-4.15.66-6.38s.21-4.6.21-7.1V148c0-.36,0-.69,0-1l-.12-4.58c-1,0-1.88.08-2.74.16s-1.7.2-2.5.34a4.65,4.65,0,0,0,.51-1.19,10.6,10.6,0,0,0,.35-1.75l.32.1a7.46,7.46,0,0,0,1.57.25c.65,0,1.45.09,2.38.13-.06-1.25-.14-2.34-.22-3.27s-.17-1.74-.28-2.39l-.12-.68a11.24,11.24,0,0,0,2.44-.58,17,17,0,0,0,2.62-1.21,73.52,73.52,0,0,0-.78,8.17c1,0,2-.09,2.84-.17s1.69-.21,2.45-.35a8.74,8.74,0,0,0-.82,2.94l-.32-.08a12.36,12.36,0,0,0-1.74-.23l-2.49-.15c0,.6,0,1.21,0,1.81s0,1.22,0,1.87v.7q0,4.83.18,8.12a31.52,31.52,0,0,0,.56,5.12l.16.72a12.37,12.37,0,0,0-1.49.31,13,13,0,0,0-1.45.49c-.46.18-.88.36-1.25.55A5.2,5.2,0,0,0,145.17,162.63Z" transform="translate(-7.81 -126.43)"/><path class="cls-1" d="M189.6,152.94a2.77,2.77,0,0,1-.18.48,14,14,0,0,1-2.59,4c-.7.71-1.25,1.26-1.67,1.65a6.49,6.49,0,0,1-.84.72l-4.47,2.81a13.61,13.61,0,0,1-2.68-1.08,17.81,17.81,0,0,1-3.07-2,17.53,17.53,0,0,1-2.84-2.81,11.81,11.81,0,0,1-2-3.57,23.52,23.52,0,0,1-.81-2.92,12,12,0,0,1-.27-2.8,13.66,13.66,0,0,1,.47-3.53,17.66,17.66,0,0,1,1.3-3.47,16.71,16.71,0,0,1,2-3.06,11.77,11.77,0,0,1,2.49-2.32l4.45-2.87c.38.11.83.27,1.37.48a17.58,17.58,0,0,1,1.78.86,22.89,22.89,0,0,1,2.08,1.33,19.9,19.9,0,0,1,2.22,1.86,15.73,15.73,0,0,1,1.14,1.33l-4,2a13.49,13.49,0,0,0-1.85-2,11.82,11.82,0,0,0-2-1.39,12.43,12.43,0,0,0-2.27-.94,21.62,21.62,0,0,0-2.68-.63l0,0q-1.72,1-2.63,5.32a25.77,25.77,0,0,0-.6,5.19,15.27,15.27,0,0,0,.26,2.69,13.75,13.75,0,0,0,.85,2.84,14.76,14.76,0,0,0,1.56,2.77,12.65,12.65,0,0,0,2.37,2.5,15.26,15.26,0,0,0,3.29,2,18.08,18.08,0,0,0,4.33,1.3c1.24-1.1,1.87-2.82,1.87-5.18a11.13,11.13,0,0,0-.41-3Z" transform="translate(-7.81 -126.43)"/><path class="cls-1" d="M203.2,162.71a13.22,13.22,0,0,1-2.85-1.17,13.64,13.64,0,0,1-3-2.18,9.6,9.6,0,0,1-2.46-3.71,10.7,10.7,0,0,1-.87-4.22v-.08a11.1,11.1,0,0,1,1-4.43,10.49,10.49,0,0,1,2-3.11,9.53,9.53,0,0,1,1.21-1.09l4.25-2.78a16.22,16.22,0,0,1,2.87,1.22,13.93,13.93,0,0,1,3,2.17,9.62,9.62,0,0,1,2.51,3.83,12.92,12.92,0,0,1,.82,4.17v.08a9.38,9.38,0,0,1-.88,4.4,13.55,13.55,0,0,1-2.29,3.33,3.5,3.5,0,0,0-.68.72Zm-4.89-19.83,0,0a17.88,17.88,0,0,0-1.25,3.64,13.39,13.39,0,0,0-.48,3.41,8.5,8.5,0,0,0,.1,1.3,8.64,8.64,0,0,0,1.49,3.59,8,8,0,0,0,3.47,2.91,32.31,32.31,0,0,0,5.92,1.83l0,0a25.17,25.17,0,0,0,1.14-4,14.16,14.16,0,0,0,.4-3.17,7.75,7.75,0,0,0-.1-1.35,9.56,9.56,0,0,0-1.48-3.59,9.77,9.77,0,0,0-3.48-2.89A17.89,17.89,0,0,0,198.31,142.88Z" transform="translate(-7.81 -126.43)"/><path class="cls-1" d="M215.62,141.8a9.46,9.46,0,0,0,1.62-.29,11.79,11.79,0,0,0,1.42-.48c.44-.18.83-.37,1.17-.55s.62-.36.85-.52a69.41,69.41,0,0,0-.78,10.17c0,.57,0,1.09.07,1.54s.05.87.09,1.24a4.78,4.78,0,0,0,.2,1,3.62,3.62,0,0,0,.38.85,8.63,8.63,0,0,0,1.33,1.55,8.34,8.34,0,0,0,1.86,1.23,18.14,18.14,0,0,0,2.62,1c1,.31,2.22.61,3.64.91,0-.5.09-1.28.11-2.36s0-2.46,0-4.14v-.7q0-2.82-.21-5.25a29.71,29.71,0,0,0-.63-4.51l-.16-.72a9.17,9.17,0,0,0,1.61-.29,12,12,0,0,0,1.43-.48c.43-.18.82-.37,1.16-.55a8.87,8.87,0,0,0,.85-.52q-.37,3-.57,5.5c-.13,1.66-.19,3.15-.19,4.49,0,1.09,0,2.11,0,3.05s0,1.83.1,2.68.11,1.67.2,2.45.2,1.59.33,2.39l.1.32a11.15,11.15,0,0,0-2.43.58,15.45,15.45,0,0,0-2.48,1.13l-.14.08.42-1.27c.15-.47.29-1,.44-1.46l-4.39,2.73a12.1,12.1,0,0,1-2-.79,15.13,15.13,0,0,1-2.43-1.47,13.9,13.9,0,0,1-2.27-2.09,8.69,8.69,0,0,1-1.58-2.71,12,12,0,0,1-.84-4.22c-.07-1.95-.16-3.66-.28-5.12s-.28-2.7-.47-3.71Z" transform="translate(-7.81 -126.43)"/><path class="cls-1" d="M240.3,162.63q.39-3,.58-5.51c.12-1.65.19-3.15.19-4.48,0-1.09,0-2.1,0-3s-.06-1.84-.12-2.69-.12-1.67-.21-2.46-.19-1.59-.31-2.39l-.1-.32a10.66,10.66,0,0,0,2.44-.57,17.42,17.42,0,0,0,2.48-1.13l.14-.08c-.13.38-.28.81-.42,1.27s-.3,1-.44,1.45l4.39-2.72a12.49,12.49,0,0,1,2,.77,14.73,14.73,0,0,1,2.41,1.44,14.21,14.21,0,0,1,2.3,2.11,8.18,8.18,0,0,1,1.62,2.74l-3.63,1.48A10.71,10.71,0,0,0,251.7,146a11.43,11.43,0,0,0-2.19-1.68,8.77,8.77,0,0,0-2.2-.94,7.48,7.48,0,0,0-1.95-.3,6,6,0,0,0-.84.07h0c-.06.49-.09,1.28-.11,2.35s0,2.46,0,4.15v.7a49.31,49.31,0,0,0,.84,9.75l.16.72a13.67,13.67,0,0,0-1.55.3c-.5.14-1,.3-1.43.47s-.85.37-1.21.56A5.68,5.68,0,0,0,240.3,162.63Z" transform="translate(-7.81 -126.43)"/><path class="cls-1" d="M259.73,162.63q.43-3,.65-6.38c.14-2.24.21-4.6.21-7.1V148c0-.36,0-.69,0-1l-.12-4.58c-1,0-1.88.08-2.74.16s-1.7.2-2.5.34a4.65,4.65,0,0,0,.51-1.19,9.65,9.65,0,0,0,.35-1.75l.33.1a7.24,7.24,0,0,0,1.56.25c.66,0,1.45.09,2.39.13-.07-1.25-.14-2.34-.22-3.27s-.18-1.74-.28-2.39l-.12-.68a11.29,11.29,0,0,0,2.43-.58,16.55,16.55,0,0,0,2.62-1.21,78.66,78.66,0,0,0-.78,8.17c1,0,2-.09,2.84-.17s1.7-.21,2.46-.35a8.75,8.75,0,0,0-.83,2.94l-.32-.08a12.15,12.15,0,0,0-1.74-.23l-2.49-.15,0,1.81c0,.6,0,1.22,0,1.87v.7q0,4.83.18,8.12a32.7,32.7,0,0,0,.56,5.12l.16.72a12.23,12.23,0,0,0-1.48.31,12.5,12.5,0,0,0-1.46.49c-.46.18-.88.36-1.25.55A5,5,0,0,0,259.73,162.63Z" transform="translate(-7.81 -126.43)"/><path class="cls-1" d="M278.63,162.75l-2.93-1.21a10.69,10.69,0,0,1-1.64-.79,15,15,0,0,1-1.53-1,13.44,13.44,0,0,1-1.31-1.12,5.88,5.88,0,0,1-.92-1.17l3.59-2.24a1.81,1.81,0,0,0,.52.95,6.35,6.35,0,0,0,1.55,1.11,19.11,19.11,0,0,0,2.76,1.18,35.45,35.45,0,0,0,4.18,1.11,6.58,6.58,0,0,0,1-3.29c0-1.39-.8-2.31-2.4-2.75l-.5-.14c-.31,0-.67-.11-1.08-.16l-1.35-.18a23.52,23.52,0,0,1-3.43-.66,9.73,9.73,0,0,1-2.55-1.08,5.15,5.15,0,0,1-1.63-1.54,4.11,4.11,0,0,1-.64-2.08,5.53,5.53,0,0,1,.19-1.14,5.73,5.73,0,0,1,.5-1.15,7.23,7.23,0,0,1,1-1.28,12.22,12.22,0,0,1,1.54-1.39l4.26-2.78c1,.4,1.84.76,2.56,1.08a16.88,16.88,0,0,1,1.91,1,10,10,0,0,1,1.46,1,11.7,11.7,0,0,1,1.27,1.27l-3.51,2.13a10.86,10.86,0,0,0-2-1.79q-1.37-1-5.82-1.77l0,0a4.11,4.11,0,0,0-.76,1.26,4.4,4.4,0,0,0-.3,1.65,1.9,1.9,0,0,0,.58,1.43,4.6,4.6,0,0,0,1.5.92,10.85,10.85,0,0,0,2.06.56c.76.14,1.5.25,2.22.34q6.06.65,7.18,3.42a5,5,0,0,1,.4,2,4.36,4.36,0,0,1-.1.94,4.11,4.11,0,0,1-.38,1,8,8,0,0,1-.79,1.22,17.41,17.41,0,0,1-1.33,1.49,8.91,8.91,0,0,1-.91.68Z" transform="translate(-7.81 -126.43)"/></g><g id="SHELL"><path class="cls-2" d="M11.46,161.18q.45-3.08.66-5.8c.15-1.82.23-3.54.23-5.16,0-1.87-.08-3.66-.24-5.36s-.33-3.33-.53-4.87l-.12-.68a11.82,11.82,0,0,0,2.44-.57,18.1,18.1,0,0,0,2.62-1.22q-.46,2.94-.69,5.38c-.16,1.63-.23,3.12-.23,4.45V148c0,.2,0,.42,0,.66s0,.52,0,.84,0,.72.06,1.19l.38.18a13.33,13.33,0,0,0,4.47.9,8.85,8.85,0,0,0,2.61-.38,7.62,7.62,0,0,0,2.21-1.1A6.12,6.12,0,0,0,27,148.57a6.63,6.63,0,0,0,.89-2.32c.08-.48.14-.93.19-1.35s.07-.82.07-1.2a9,9,0,0,0-.22-1.95,11.28,11.28,0,0,0-.59-1.81,8.87,8.87,0,0,0-.83-1.56,9.47,9.47,0,0,0-1-1.26,5.83,5.83,0,0,0-1.18-.92,8.31,8.31,0,0,0-1.61-.78,11.85,11.85,0,0,0-2-.55,12.76,12.76,0,0,0-2.29-.2,10.84,10.84,0,0,0-2.2.25,15.64,15.64,0,0,0-2.34.72,18.86,18.86,0,0,0-2.38,1.12,19.55,19.55,0,0,0-2.32,1.51L10.6,133l2.37-.95.88-.34c1.2-.32,2.23-.55,3.07-.71a12.43,12.43,0,0,1,2.09-.23,11.58,11.58,0,0,1,2.13.23,15.93,15.93,0,0,1,2.45.7A17.14,17.14,0,0,1,26,132.88a11.93,11.93,0,0,1,2.16,1.59,10.85,10.85,0,0,1,1.46,1.74,13.49,13.49,0,0,1,1.15,2.08,12.61,12.61,0,0,1,.74,2.3,12.26,12.26,0,0,1,.26,2.53,12.87,12.87,0,0,1-.25,2.08,15.33,15.33,0,0,1-.69,2.3,8.59,8.59,0,0,1-1.31,2.2,10.26,10.26,0,0,1-2,1.88,9.58,9.58,0,0,1-2.7,1.33,11.49,11.49,0,0,1-3.57.5,16.22,16.22,0,0,1-2.61-.21,22.84,22.84,0,0,1-2.58-.57l-.3-.06c.1,1.79.2,3.22.28,4.27a10,10,0,0,0,.28,2l.16.46a12.57,12.57,0,0,0-1.71.3,10.1,10.1,0,0,0-1.38.47,8.06,8.06,0,0,0-1.1.54C12,160.83,11.72,161,11.46,161.18Z" transform="translate(-7.81 -126.43)"/><path class="cls-2" d="M44.75,161.18a33.14,33.14,0,0,1-3.63-1.69,12.84,12.84,0,0,1-3.61-2.88,7,7,0,0,1-1.29-3.72v-.1a5.65,5.65,0,0,1,2.25-3.93,13.31,13.31,0,0,1,8.25-2.57q-6.12,2.25-7.09,5a3.54,3.54,0,0,0-.2,1.12,2.41,2.41,0,0,0,.65,1.65A11.94,11.94,0,0,0,43,156.4a18.51,18.51,0,0,0,6,2Zm-8.07-16.86a5.9,5.9,0,0,1,1.77-2.2l.94-.77L44,138.51a14.59,14.59,0,0,1,2.83,1.16,12.63,12.63,0,0,1,3,2.19,10.12,10.12,0,0,1,2.49,3.71,12,12,0,0,1,.84,4.21,56.86,56.86,0,0,0,.74,8.83l.16.72a10.75,10.75,0,0,0-2.45.57A10.52,10.52,0,0,0,49,161.18a77,77,0,0,0,.77-10.78v-.54a6.77,6.77,0,0,0-.73-3.49,8.43,8.43,0,0,0-3.49-2.91,29,29,0,0,0-5.94-1.8,3.44,3.44,0,0,0-.32,1.74,10.94,10.94,0,0,0,.26,2Z" transform="translate(-7.81 -126.43)"/><path class="cls-2" d="M59.06,161.18q.38-3,.57-5.51c.13-1.65.19-3.14.19-4.48,0-1.09,0-2.1,0-3s-.06-1.84-.11-2.69-.12-1.67-.21-2.46-.19-1.58-.31-2.39l-.1-.32a10.78,10.78,0,0,0,2.44-.57A17.84,17.84,0,0,0,64,138.59l.14-.08c-.13.38-.27.81-.42,1.27s-.29.95-.44,1.45l4.4-2.72a12.43,12.43,0,0,1,2,.77,14.8,14.8,0,0,1,2.42,1.44,14.64,14.64,0,0,1,2.3,2.11A8.32,8.32,0,0,1,76,145.57l-3.63,1.48a10.44,10.44,0,0,0-1.89-2.53,10.77,10.77,0,0,0-2.18-1.69,9.22,9.22,0,0,0-2.21-.94,7.31,7.31,0,0,0-2-.29,5.93,5.93,0,0,0-.84.06h0c0,.49-.09,1.28-.11,2.35s0,2.46,0,4.15v.7a49.31,49.31,0,0,0,.84,9.75l.16.72a11.94,11.94,0,0,0-3,.78c-.44.18-.85.36-1.21.55A6.42,6.42,0,0,0,59.06,161.18Z" transform="translate(-7.81 -126.43)"/><path class="cls-2" d="M90.46,168.84a69.9,69.9,0,0,0,.9-11q.06-3.74.06-5.28v-.64c0-.76,0-1.42,0-2a14.36,14.36,0,0,0-.1-1.45,5.3,5.3,0,0,0-.26-1.14,3.55,3.55,0,0,0-.54-1A8.09,8.09,0,0,0,89,144.77a9.07,9.07,0,0,0-1.87-1.24,17.82,17.82,0,0,0-2.54-1c-1-.32-2.1-.66-3.4-1a13.35,13.35,0,0,0-.89,1.89,13.94,13.94,0,0,0-.56,1.82,13.73,13.73,0,0,0-.27,1.71c0,.56-.07,1.1-.07,1.62a9,9,0,0,0,.33,2.44,9.21,9.21,0,0,0,1,2.2A8.44,8.44,0,0,0,82.3,155a8.6,8.6,0,0,0,2.16,1.42,21.29,21.29,0,0,0,2.56,1,32.05,32.05,0,0,0,3.4.91l-4.25,2.79a7.72,7.72,0,0,1-.9-.29,13.81,13.81,0,0,1-1.39-.62,17.48,17.48,0,0,1-1.68-1,13.29,13.29,0,0,1-1.73-1.35,10.63,10.63,0,0,1-1.55-1.77A8.67,8.67,0,0,1,77.8,154a16.6,16.6,0,0,1-.62-2.18,8.58,8.58,0,0,1-.2-2.08,10.21,10.21,0,0,1,.26-2.3,13,13,0,0,1,.69-2.24,10.63,10.63,0,0,1,1-1.9A4.71,4.71,0,0,1,80.15,142l.7-.6,4.57-2.85a8,8,0,0,1,1.37.49,17.47,17.47,0,0,1,1.62.81q.82.46,1.59,1a8.33,8.33,0,0,1,1.26,1.06c.59.63,1.1,1.2,1.53,1.73a9.34,9.34,0,0,1,1,1.6,7,7,0,0,1,.61,1.68,8.65,8.65,0,0,1,.2,2c0,.52,0,1.38-.1,2.57s-.1,2.81-.1,4.85V158a35,35,0,0,0,.42,5.56,10.31,10.31,0,0,0,3.66-2.11,4.76,4.76,0,0,0,.3.94,10.88,10.88,0,0,0,.55,1.17,12.39,12.39,0,0,0,.79,1.28,13.66,13.66,0,0,0,1,1.29l-.52,0c-.25,0-.74,0-1.45.11s-1.68.2-2.9.39a9.52,9.52,0,0,0-1.19.25c-.48.13-1,.29-1.54.49s-1.1.43-1.65.69A10.34,10.34,0,0,0,90.46,168.84Z" transform="translate(-7.81 -126.43)"/><path class="cls-2" d="M100.51,140.35a9.46,9.46,0,0,0,1.62-.29,11.79,11.79,0,0,0,1.42-.48c.44-.18.82-.37,1.17-.55s.62-.36.85-.52a69.51,69.51,0,0,0-.78,10.17c0,.57,0,1.09.07,1.54s0,.87.09,1.24a4.78,4.78,0,0,0,.2,1,3.62,3.62,0,0,0,.38.85,8.63,8.63,0,0,0,1.33,1.55,8,8,0,0,0,1.86,1.23,17.69,17.69,0,0,0,2.62,1c1,.31,2.22.62,3.64.91,0-.49.09-1.28.11-2.36s0-2.46,0-4.14v-.7q0-2.82-.21-5.25a32.47,32.47,0,0,0-.63-4.51l-.16-.72a9.17,9.17,0,0,0,1.61-.29,12,12,0,0,0,1.43-.48c.43-.18.82-.37,1.16-.55s.62-.36.85-.52q-.37,3-.57,5.5c-.13,1.66-.19,3.15-.19,4.49,0,1.1,0,2.11,0,3.05s0,1.83.1,2.68.11,1.67.2,2.46.2,1.58.33,2.38l.1.32a11.38,11.38,0,0,0-2.44.58,15.76,15.76,0,0,0-2.47,1.13l-.14.08.42-1.27c.14-.47.29-.95.44-1.46l-4.4,2.73a12.37,12.37,0,0,1-2-.79,15.13,15.13,0,0,1-2.43-1.47,13.5,13.5,0,0,1-2.27-2.09,8.69,8.69,0,0,1-1.58-2.71,12,12,0,0,1-.84-4.22c-.07-2-.17-3.66-.29-5.12a36.68,36.68,0,0,0-.46-3.71Z" transform="translate(-7.81 -126.43)"/><path class="cls-2" d="M133.38,161.26a12.63,12.63,0,0,1-2.85-1.17,13.86,13.86,0,0,1-3-2.18,9.55,9.55,0,0,1-2.47-3.71,14,14,0,0,1-.86-4.22v-.08a11.25,11.25,0,0,1,1-4.43,11,11,0,0,1,2-3.11,9.81,9.81,0,0,1,1.2-1.09l4.22-2.76a31.59,31.59,0,0,1,3.63,1.68,13,13,0,0,1,3.61,2.89,7,7,0,0,1,1.28,3.71v.1a5.63,5.63,0,0,1-2.24,3.94,13.38,13.38,0,0,1-8.25,2.56q6.22-2.12,7.36-4.91a3,3,0,0,0,.24-1.15v-.08a2.46,2.46,0,0,0-.7-1.64,9.63,9.63,0,0,0-3.17-2.33,18.09,18.09,0,0,0-5.74-2,14,14,0,0,0-1.38,3.78,14.69,14.69,0,0,0-.48,3.41,7.79,7.79,0,0,0,.1,1.3,8.91,8.91,0,0,0,1.48,3.59,8.52,8.52,0,0,0,3.47,2.91,29.54,29.54,0,0,0,5.92,1.83l0,0a3.38,3.38,0,0,0,.32-1.75,10.08,10.08,0,0,0-.26-2l2.85,1.12a6,6,0,0,1-1.76,2.21c-.62.49-.93.75-.93.76Z" transform="translate(-7.81 -126.43)"/><path class="cls-2" d="M146.62,161.18c.3-2,.51-4.15.65-6.38s.21-4.6.21-7.1v-1.19c0-.36,0-.69,0-1l-.12-4.58c-1,0-1.87.08-2.73.16s-1.7.2-2.5.35a5.32,5.32,0,0,0,.51-1.2,10.6,10.6,0,0,0,.35-1.75l.32.1a7.46,7.46,0,0,0,1.57.25c.65,0,1.45.09,2.38.13-.06-1.25-.14-2.34-.22-3.27s-.17-1.74-.28-2.39l-.12-.68a11.24,11.24,0,0,0,2.44-.58,17,17,0,0,0,2.62-1.21,73.52,73.52,0,0,0-.78,8.17c1,0,2-.09,2.84-.17s1.69-.21,2.45-.35a8.79,8.79,0,0,0-.82,3l-.32-.08a11,11,0,0,0-1.75-.24l-2.48-.15c0,.61,0,1.21,0,1.81s0,1.22,0,1.87v.7q0,4.83.18,8.12a31.52,31.52,0,0,0,.56,5.12l.16.72a12.37,12.37,0,0,0-1.49.31c-.5.15-1,.31-1.45.49s-.88.36-1.26.55A6.39,6.39,0,0,0,146.62,161.18Z" transform="translate(-7.81 -126.43)"/><path class="cls-2" d="M191.05,151.49a2.77,2.77,0,0,1-.18.48,13.82,13.82,0,0,1-2.59,4c-.7.71-1.25,1.26-1.67,1.65a6.49,6.49,0,0,1-.84.72l-4.48,2.81a14.35,14.35,0,0,1-2.67-1.07,18.51,18.51,0,0,1-3.07-2,17.53,17.53,0,0,1-2.84-2.81,11.81,11.81,0,0,1-2-3.57,23.52,23.52,0,0,1-.81-2.92,12,12,0,0,1-.27-2.8,13.66,13.66,0,0,1,.47-3.53,17.66,17.66,0,0,1,1.3-3.47,16.71,16.71,0,0,1,2-3.06,12,12,0,0,1,2.49-2.32l4.45-2.87c.38.11.83.27,1.37.48a17.58,17.58,0,0,1,1.78.86,22.89,22.89,0,0,1,2.08,1.33,19,19,0,0,1,2.22,1.87,15.61,15.61,0,0,1,1.14,1.32l-4,2a13.49,13.49,0,0,0-1.85-2,11.22,11.22,0,0,0-2-1.38,11.79,11.79,0,0,0-2.27-1,22.06,22.06,0,0,0-2.68-.63l0,0q-1.72,1-2.63,5.32a25.77,25.77,0,0,0-.6,5.19,15.27,15.27,0,0,0,.26,2.69,13.75,13.75,0,0,0,.85,2.84,13.94,13.94,0,0,0,1.56,2.77,12.89,12.89,0,0,0,2.36,2.5,15.58,15.58,0,0,0,3.3,2,18.08,18.08,0,0,0,4.33,1.3c1.24-1.1,1.87-2.82,1.87-5.18a11.13,11.13,0,0,0-.41-3.05Z" transform="translate(-7.81 -126.43)"/><path class="cls-2" d="M204.65,161.26a13.65,13.65,0,0,1-2.85-1.16,14,14,0,0,1-3-2.19,9.67,9.67,0,0,1-2.47-3.71,10.87,10.87,0,0,1-.86-4.22v-.08a11.25,11.25,0,0,1,1-4.43,10.71,10.71,0,0,1,2-3.11,11.14,11.14,0,0,1,1.2-1.09l4.26-2.78a16.22,16.22,0,0,1,2.87,1.22,14.18,14.18,0,0,1,3,2.17,9.73,9.73,0,0,1,2.51,3.83,12.92,12.92,0,0,1,.82,4.17V150a9.38,9.38,0,0,1-.88,4.4,13.55,13.55,0,0,1-2.29,3.33,3.5,3.5,0,0,0-.68.72Zm-4.89-19.82,0,0a17.52,17.52,0,0,0-1.25,3.63,13.39,13.39,0,0,0-.48,3.41,8.5,8.5,0,0,0,.1,1.3,8.75,8.75,0,0,0,1.48,3.59,8,8,0,0,0,3.48,2.91,32.06,32.06,0,0,0,5.92,1.83l0,0a25.17,25.17,0,0,0,1.14-4,14.16,14.16,0,0,0,.4-3.17,7.75,7.75,0,0,0-.1-1.35,8.72,8.72,0,0,0-5-6.48A17.91,17.91,0,0,0,199.76,141.44Z" transform="translate(-7.81 -126.43)"/><path class="cls-2" d="M217.07,140.35a9.46,9.46,0,0,0,1.62-.29,11.79,11.79,0,0,0,1.42-.48c.44-.18.82-.37,1.17-.55s.62-.36.85-.52a69.51,69.51,0,0,0-.78,10.17c0,.57.05,1.09.07,1.54s.05.87.09,1.24a4.78,4.78,0,0,0,.2,1,3.62,3.62,0,0,0,.38.85,8.63,8.63,0,0,0,1.33,1.55,8,8,0,0,0,1.86,1.23,17.69,17.69,0,0,0,2.62,1c1,.31,2.22.62,3.64.91.05-.49.09-1.28.11-2.36s0-2.46,0-4.14v-.7q0-2.82-.21-5.25a31,31,0,0,0-.63-4.51l-.16-.72a9.17,9.17,0,0,0,1.61-.29,12,12,0,0,0,1.43-.48c.43-.18.82-.37,1.16-.55s.62-.36.85-.52q-.37,3-.57,5.5c-.13,1.66-.19,3.15-.19,4.49,0,1.1,0,2.11,0,3.05s.05,1.83.1,2.68.11,1.67.2,2.46.2,1.58.33,2.38l.1.32a11.38,11.38,0,0,0-2.44.58,15.76,15.76,0,0,0-2.47,1.13l-.14.08.42-1.27c.15-.47.29-.95.44-1.46l-4.4,2.73a12.37,12.37,0,0,1-2-.79,15.13,15.13,0,0,1-2.43-1.47,13.5,13.5,0,0,1-2.27-2.09,8.69,8.69,0,0,1-1.58-2.71,12,12,0,0,1-.85-4.22c-.06-2-.16-3.66-.28-5.12a36.68,36.68,0,0,0-.46-3.71Z" transform="translate(-7.81 -126.43)"/><path class="cls-2" d="M241.75,161.18q.39-3,.57-5.51c.13-1.65.19-3.14.19-4.48,0-1.09,0-2.1,0-3s0-1.84-.11-2.69-.12-1.67-.21-2.46-.19-1.58-.31-2.39l-.1-.32a10.66,10.66,0,0,0,2.44-.57,17.42,17.42,0,0,0,2.48-1.13l.14-.08c-.14.38-.28.81-.42,1.27s-.3.95-.44,1.45l4.39-2.72a12.49,12.49,0,0,1,2,.77,14.73,14.73,0,0,1,2.41,1.44,14.21,14.21,0,0,1,2.3,2.11,8.18,8.18,0,0,1,1.62,2.74L255,147.05a10.44,10.44,0,0,0-1.89-2.53,11.11,11.11,0,0,0-2.19-1.69,9.05,9.05,0,0,0-2.21-.94,7.3,7.3,0,0,0-1.94-.29,5.93,5.93,0,0,0-.84.06h0c-.06.49-.09,1.28-.12,2.35s0,2.46,0,4.15v.7a49.31,49.31,0,0,0,.84,9.75l.16.72a13.67,13.67,0,0,0-1.55.3,13.31,13.31,0,0,0-1.43.48,12.69,12.69,0,0,0-1.21.55A6.62,6.62,0,0,0,241.75,161.18Z" transform="translate(-7.81 -126.43)"/><path class="cls-2" d="M261.18,161.18q.44-3,.65-6.38c.14-2.24.21-4.6.21-7.1v-1.19c0-.36,0-.69,0-1L261.9,141c-1,0-1.88.08-2.74.16s-1.7.2-2.5.35a4.9,4.9,0,0,0,.51-1.2,9.65,9.65,0,0,0,.35-1.75l.32.1a7.46,7.46,0,0,0,1.57.25c.66,0,1.45.09,2.39.13-.07-1.25-.14-2.34-.22-3.27s-.18-1.74-.28-2.39l-.12-.68a11.29,11.29,0,0,0,2.43-.58,16.55,16.55,0,0,0,2.62-1.21,78.66,78.66,0,0,0-.78,8.17c1,0,2-.09,2.84-.17s1.69-.21,2.46-.35a8.8,8.8,0,0,0-.83,3l-.32-.08a10.72,10.72,0,0,0-1.74-.24l-2.49-.15,0,1.81c0,.6,0,1.22,0,1.87v.7q0,4.83.18,8.12a32.7,32.7,0,0,0,.56,5.12l.16.72a11.84,11.84,0,0,0-1.48.31c-.51.15-1,.31-1.46.49s-.88.36-1.25.55A5.81,5.81,0,0,0,261.18,161.18Z" transform="translate(-7.81 -126.43)"/><path class="cls-2" d="M280.08,161.3l-2.93-1.2a11.79,11.79,0,0,1-1.64-.8,15,15,0,0,1-1.53-1,13.44,13.44,0,0,1-1.31-1.12,5.88,5.88,0,0,1-.92-1.17l3.59-2.24a1.81,1.81,0,0,0,.52,1,6.15,6.15,0,0,0,1.55,1.11,19.11,19.11,0,0,0,2.76,1.18,35.45,35.45,0,0,0,4.18,1.11,6.56,6.56,0,0,0,1-3.29c0-1.39-.8-2.31-2.4-2.75l-.51-.14c-.3-.05-.66-.11-1.07-.16l-1.35-.18a23.52,23.52,0,0,1-3.43-.66,9.41,9.41,0,0,1-2.55-1.08,5.15,5.15,0,0,1-1.63-1.54,4.11,4.11,0,0,1-.64-2.08,5.65,5.65,0,0,1,.19-1.14,5.73,5.73,0,0,1,.5-1.15,7.23,7.23,0,0,1,1-1.28,12.22,12.22,0,0,1,1.54-1.39l4.25-2.78c1,.4,1.85.76,2.57,1.08a17.78,17.78,0,0,1,1.91,1,10,10,0,0,1,1.46,1.05,11.7,11.7,0,0,1,1.27,1.27L282.93,145a11.23,11.23,0,0,0-2-1.79q-1.37-1-5.82-1.76l0,0a3.94,3.94,0,0,0-.76,1.25,4.4,4.4,0,0,0-.3,1.65,1.88,1.88,0,0,0,.58,1.43,4.6,4.6,0,0,0,1.5.92,10.64,10.64,0,0,0,2.06.56c.76.14,1.5.25,2.22.35q6.06.63,7.18,3.41a5,5,0,0,1,.4,2,4.14,4.14,0,0,1-.48,2,8,8,0,0,1-.79,1.22,16.11,16.11,0,0,1-1.34,1.49,7.44,7.44,0,0,1-.9.68Z" transform="translate(-7.81 -126.43)"/></g><g id="ORANGE"><path class="cls-3" d="M12.91,159.73q.45-3.07.66-5.8c.15-1.82.23-3.54.23-5.16,0-1.87-.08-3.66-.24-5.36s-.33-3.33-.53-4.87l-.12-.68a10.66,10.66,0,0,0,2.44-.57A17.09,17.09,0,0,0,18,136.07q-.46,2.94-.69,5.38c-.16,1.63-.23,3.12-.23,4.46v.66c0,.2,0,.42,0,.66s0,.52,0,.84,0,.72.06,1.19l.38.18a13.33,13.33,0,0,0,4.47.9,8.85,8.85,0,0,0,2.61-.38,7.86,7.86,0,0,0,2.21-1.09,6.29,6.29,0,0,0,1.62-1.75,6.63,6.63,0,0,0,.89-2.32c.08-.48.14-.93.19-1.35s.07-.82.07-1.2a9,9,0,0,0-.22-1.95,11.28,11.28,0,0,0-.59-1.81,8.87,8.87,0,0,0-.83-1.56,9.47,9.47,0,0,0-1-1.26,5.83,5.83,0,0,0-1.18-.92,8.93,8.93,0,0,0-1.61-.78,11.85,11.85,0,0,0-2-.55,12.76,12.76,0,0,0-2.29-.2,10.21,10.21,0,0,0-2.2.26,14.49,14.49,0,0,0-2.34.71A20.36,20.36,0,0,0,13,135.31a18.67,18.67,0,0,0-2.31,1.51l1.34-5.26,2.37-.94.88-.35c1.2-.32,2.23-.55,3.07-.71a12.43,12.43,0,0,1,2.09-.23,11.58,11.58,0,0,1,2.13.23,15.93,15.93,0,0,1,2.45.7,17.14,17.14,0,0,1,2.45,1.17A11.93,11.93,0,0,1,29.65,133a10.85,10.85,0,0,1,1.46,1.74,13.49,13.49,0,0,1,1.15,2.08,12.61,12.61,0,0,1,.74,2.3,12.26,12.26,0,0,1,.26,2.53,11.84,11.84,0,0,1-.25,2.08,15.33,15.33,0,0,1-.69,2.3,8.59,8.59,0,0,1-1.31,2.2,10.49,10.49,0,0,1-2,1.88,9.78,9.78,0,0,1-2.71,1.33,11.49,11.49,0,0,1-3.57.5,16.22,16.22,0,0,1-2.61-.21,22.84,22.84,0,0,1-2.58-.57l-.3-.06c.1,1.8.2,3.22.28,4.27a9.84,9.84,0,0,0,.28,2l.16.46a11.14,11.14,0,0,0-1.71.31,8.92,8.92,0,0,0-1.38.46,8.06,8.06,0,0,0-1.1.54C13.45,159.38,13.17,159.56,12.91,159.73Z" transform="translate(-7.81 -126.43)"/><path class="cls-3" d="M46.2,159.73A33.14,33.14,0,0,1,42.57,158,12.84,12.84,0,0,1,39,155.16a7,7,0,0,1-1.29-3.72v-.1a5.65,5.65,0,0,1,2.25-3.93,13.31,13.31,0,0,1,8.25-2.57q-6.12,2.25-7.09,5a3.54,3.54,0,0,0-.2,1.12,2.41,2.41,0,0,0,.65,1.65A12.1,12.1,0,0,0,44.44,155a18.33,18.33,0,0,0,6,2Zm-8.07-16.85a5.85,5.85,0,0,1,1.77-2.21l.94-.76,4.58-2.85a15.26,15.26,0,0,1,2.83,1.16,12.63,12.63,0,0,1,3,2.19,10.2,10.2,0,0,1,2.49,3.71,12,12,0,0,1,.84,4.21,56.74,56.74,0,0,0,.74,8.83l.16.72a10.75,10.75,0,0,0-2.45.57,10.88,10.88,0,0,0-2.61,1.28A76.92,76.92,0,0,0,51.2,149v-.55a6.77,6.77,0,0,0-.73-3.49A8.43,8.43,0,0,0,47,142a29,29,0,0,0-5.94-1.8,3.44,3.44,0,0,0-.32,1.74A10.94,10.94,0,0,0,41,144Z" transform="translate(-7.81 -126.43)"/><path class="cls-3" d="M60.51,159.73c.25-2,.44-3.85.57-5.51s.19-3.14.19-4.48c0-1.09,0-2.1,0-3s-.06-1.84-.11-2.69-.12-1.67-.21-2.46-.19-1.58-.31-2.39l-.1-.32a10.78,10.78,0,0,0,2.44-.57,16.74,16.74,0,0,0,2.47-1.13l.14-.08c-.13.38-.27.81-.42,1.27s-.29.95-.44,1.46l4.4-2.73a12.43,12.43,0,0,1,2,.77,14.8,14.8,0,0,1,2.42,1.44,14.64,14.64,0,0,1,2.3,2.11,8.32,8.32,0,0,1,1.61,2.74l-3.63,1.48a10.64,10.64,0,0,0-1.89-2.53,11.15,11.15,0,0,0-2.18-1.69,9.22,9.22,0,0,0-2.21-.94,7.31,7.31,0,0,0-2-.29,5.93,5.93,0,0,0-.84.06h0c0,.49-.09,1.28-.11,2.35s0,2.46,0,4.15v.7a49.31,49.31,0,0,0,.84,9.75l.16.72a13.21,13.21,0,0,0-3,.78c-.44.18-.85.36-1.21.55A6.42,6.42,0,0,0,60.51,159.73Z" transform="translate(-7.81 -126.43)"/><path class="cls-3" d="M91.91,167.4a69,69,0,0,0,.9-11q.06-3.74.06-5.28v-.64c0-.76,0-1.42,0-2a12.08,12.08,0,0,0-.1-1.45,5.08,5.08,0,0,0-.26-1.13,3.46,3.46,0,0,0-.54-1,8.09,8.09,0,0,0-1.44-1.62,9.07,9.07,0,0,0-1.87-1.24,19.07,19.07,0,0,0-2.54-1c-1-.32-2.1-.66-3.4-1a13.35,13.35,0,0,0-.89,1.89,13.94,13.94,0,0,0-.56,1.82,13.73,13.73,0,0,0-.27,1.71c0,.56-.07,1.1-.07,1.62a8.69,8.69,0,0,0,1.3,4.64,8.44,8.44,0,0,0,1.56,1.88A9.11,9.11,0,0,0,85.91,155a23.21,23.21,0,0,0,2.56,1,32.05,32.05,0,0,0,3.4.91l-4.25,2.79a7.72,7.72,0,0,1-.9-.29,13.81,13.81,0,0,1-1.39-.62,17.48,17.48,0,0,1-1.68-1,13.29,13.29,0,0,1-1.73-1.35,10.63,10.63,0,0,1-1.55-1.77,8.67,8.67,0,0,1-1.12-2.21,16.6,16.6,0,0,1-.62-2.18,8.58,8.58,0,0,1-.2-2.08,10.21,10.21,0,0,1,.26-2.3,13,13,0,0,1,.69-2.24,10.63,10.63,0,0,1,1-1.9,4.71,4.71,0,0,1,1.22-1.28l.7-.6,4.57-2.85a8,8,0,0,1,1.37.49,17.47,17.47,0,0,1,1.62.81q.83.47,1.59,1a8.33,8.33,0,0,1,1.26,1.06c.59.63,1.1,1.2,1.53,1.73a8.78,8.78,0,0,1,1.05,1.6,7.19,7.19,0,0,1,.61,1.68,8.65,8.65,0,0,1,.2,2c0,.52,0,1.38-.1,2.57s-.1,2.81-.1,4.85v1.65a35,35,0,0,0,.42,5.56A10.16,10.16,0,0,0,100,160a4.76,4.76,0,0,0,.3.94,10.88,10.88,0,0,0,.55,1.17,12.39,12.39,0,0,0,.79,1.28,13.66,13.66,0,0,0,1,1.29l-.52,0c-.25,0-.74,0-1.45.11s-1.68.2-2.9.39a9.52,9.52,0,0,0-1.19.25c-.48.13-1,.29-1.54.49s-1.1.43-1.65.69A9.53,9.53,0,0,0,91.91,167.4Z" transform="translate(-7.81 -126.43)"/><path class="cls-3" d="M102,138.9a9.46,9.46,0,0,0,1.62-.29,12.31,12.31,0,0,0,2.59-1c.34-.19.62-.36.85-.52a69.61,69.61,0,0,0-.78,10.17c0,.58.05,1.09.07,1.54s0,.87.09,1.24a4.78,4.78,0,0,0,.2,1,3.88,3.88,0,0,0,.38.86,8.57,8.57,0,0,0,1.33,1.54,7.7,7.7,0,0,0,1.86,1.23,17.69,17.69,0,0,0,2.62,1c1,.31,2.22.62,3.64.91,0-.49.09-1.28.11-2.36s0-2.46,0-4.14v-.7q0-2.82-.21-5.25a31,31,0,0,0-.63-4.51l-.16-.72a9.17,9.17,0,0,0,1.61-.29,12,12,0,0,0,1.43-.48,11.53,11.53,0,0,0,1.16-.55,8.87,8.87,0,0,0,.85-.52q-.37,3-.57,5.5c-.13,1.66-.19,3.15-.19,4.49,0,1.1,0,2.11,0,3s0,1.83.1,2.68.11,1.67.2,2.46.2,1.58.33,2.38l.1.33a10.58,10.58,0,0,0-2.43.57,15.45,15.45,0,0,0-2.48,1.13l-.14.08.42-1.27c.14-.47.29-1,.44-1.46l-4.4,2.73a12.37,12.37,0,0,1-2-.79,15.13,15.13,0,0,1-2.43-1.47,13.5,13.5,0,0,1-2.27-2.09,8.69,8.69,0,0,1-1.58-2.71,12,12,0,0,1-.84-4.22c-.07-1.95-.17-3.66-.29-5.12a36.68,36.68,0,0,0-.46-3.71Z" transform="translate(-7.81 -126.43)"/><path class="cls-3" d="M134.83,159.81a12.63,12.63,0,0,1-2.85-1.17,13.86,13.86,0,0,1-3-2.18,9.55,9.55,0,0,1-2.47-3.71,14,14,0,0,1-.86-4.22v-.08a11.25,11.25,0,0,1,1-4.43,11.09,11.09,0,0,1,2-3.11,9,9,0,0,1,1.2-1.08l4.22-2.77a31.59,31.59,0,0,1,3.63,1.68,13,13,0,0,1,3.61,2.89,7,7,0,0,1,1.28,3.71v.1a5.63,5.63,0,0,1-2.24,3.94,13.45,13.45,0,0,1-8.25,2.57q6.23-2.13,7.36-4.92a3,3,0,0,0,.25-1.14v-.08a2.48,2.48,0,0,0-.71-1.65,9.63,9.63,0,0,0-3.17-2.33,17.77,17.77,0,0,0-5.74-2,13.91,13.91,0,0,0-1.38,3.77,14.69,14.69,0,0,0-.48,3.41,7.79,7.79,0,0,0,.1,1.3,9.16,9.16,0,0,0,1.48,3.6,8.43,8.43,0,0,0,3.47,2.9,29.54,29.54,0,0,0,5.92,1.83l0,0a3.38,3.38,0,0,0,.32-1.75,10.08,10.08,0,0,0-.26-2l2.85,1.12a6,6,0,0,1-1.76,2.21c-.62.49-.93.75-.93.76Z" transform="translate(-7.81 -126.43)"/><path class="cls-3" d="M148.07,159.73c.3-2,.51-4.15.65-6.38s.22-4.6.22-7.1v-1.19c0-.36,0-.69,0-1l-.13-4.58c-1,0-1.87.08-2.73.17s-1.7.19-2.5.34a4.9,4.9,0,0,0,.51-1.2,10.39,10.39,0,0,0,.35-1.75l.32.1a7.46,7.46,0,0,0,1.57.25c.65,0,1.45.09,2.38.13-.06-1.25-.14-2.34-.22-3.27s-.17-1.73-.28-2.39l-.12-.68a11.82,11.82,0,0,0,2.44-.57,18.1,18.1,0,0,0,2.62-1.22,73.76,73.76,0,0,0-.78,8.17c1,0,2-.08,2.84-.17s1.69-.21,2.45-.35a8.79,8.79,0,0,0-.82,2.95l-.32-.08a10.1,10.1,0,0,0-1.75-.23l-2.48-.16c0,.61,0,1.21,0,1.81s0,1.22,0,1.87v.7q0,4.83.18,8.12a31.39,31.39,0,0,0,.56,5.12l.16.72a10.77,10.77,0,0,0-1.49.32c-.5.14-1,.3-1.45.48s-.88.36-1.25.55A6,6,0,0,0,148.07,159.73Z" transform="translate(-7.81 -126.43)"/><path class="cls-3" d="M192.5,150a2.77,2.77,0,0,1-.18.48,13.82,13.82,0,0,1-2.59,4c-.7.71-1.25,1.26-1.67,1.65a6.49,6.49,0,0,1-.84.72l-4.47,2.81a14.14,14.14,0,0,1-2.68-1.07,18.51,18.51,0,0,1-3.07-2,17.53,17.53,0,0,1-2.84-2.81,11.81,11.81,0,0,1-2-3.57,23.52,23.52,0,0,1-.81-2.92,12,12,0,0,1-.27-2.8,13.66,13.66,0,0,1,.47-3.53,17.9,17.9,0,0,1,1.3-3.47,16.71,16.71,0,0,1,2-3.06,12,12,0,0,1,2.49-2.32l4.45-2.87c.38.11.83.27,1.37.48a15.89,15.89,0,0,1,1.78.87A20.71,20.71,0,0,1,187,132a19,19,0,0,1,2.22,1.87,15.61,15.61,0,0,1,1.14,1.32l-4,2a13.49,13.49,0,0,0-1.85-2,11.22,11.22,0,0,0-2-1.38,12.46,12.46,0,0,0-2.27-.95,26.57,26.57,0,0,0-2.68-.63l0,0q-1.73,1-2.63,5.32a25.79,25.79,0,0,0-.6,5.2,15.25,15.25,0,0,0,.26,2.68,13.75,13.75,0,0,0,.85,2.84,13.94,13.94,0,0,0,1.56,2.77,12.89,12.89,0,0,0,2.36,2.5,15.58,15.58,0,0,0,3.3,2,18.08,18.08,0,0,0,4.33,1.3c1.24-1.09,1.87-2.82,1.87-5.18a11.13,11.13,0,0,0-.41-3Z" transform="translate(-7.81 -126.43)"/><path class="cls-3" d="M206.1,159.81a13.65,13.65,0,0,1-2.85-1.16,14,14,0,0,1-3-2.19,9.67,9.67,0,0,1-2.47-3.71,10.87,10.87,0,0,1-.86-4.22v-.08a11.25,11.25,0,0,1,1-4.43,10.85,10.85,0,0,1,2-3.11,10.09,10.09,0,0,1,1.2-1.08l4.26-2.79a16.22,16.22,0,0,1,2.87,1.22,14.18,14.18,0,0,1,3,2.17,9.8,9.8,0,0,1,2.51,3.83,12.92,12.92,0,0,1,.82,4.17v.08a9.38,9.38,0,0,1-.88,4.4,13.55,13.55,0,0,1-2.29,3.33,3.5,3.5,0,0,0-.68.72ZM201.21,140l0,0a17.52,17.52,0,0,0-1.25,3.63,13.45,13.45,0,0,0-.48,3.41,8.5,8.5,0,0,0,.1,1.3A8.84,8.84,0,0,0,201,152a8,8,0,0,0,3.48,2.9,32.06,32.06,0,0,0,5.92,1.83l0,0a25.17,25.17,0,0,0,1.14-4,14.16,14.16,0,0,0,.4-3.17,7.75,7.75,0,0,0-.1-1.35,9.62,9.62,0,0,0-1.48-3.59,9.77,9.77,0,0,0-3.48-2.89A17.91,17.91,0,0,0,201.21,140Z" transform="translate(-7.81 -126.43)"/><path class="cls-3" d="M218.52,138.9a9.46,9.46,0,0,0,1.62-.29,12.31,12.31,0,0,0,2.59-1c.34-.19.62-.36.85-.52a69.61,69.61,0,0,0-.78,10.17c0,.58,0,1.09.07,1.54s0,.87.09,1.24a4.78,4.78,0,0,0,.2,1,3.88,3.88,0,0,0,.38.86,8.57,8.57,0,0,0,1.33,1.54,7.7,7.7,0,0,0,1.86,1.23,17.69,17.69,0,0,0,2.62,1c1,.31,2.22.62,3.64.91,0-.49.09-1.28.11-2.36s0-2.46,0-4.14v-.7q0-2.82-.21-5.25a31,31,0,0,0-.63-4.51l-.16-.72a9.17,9.17,0,0,0,1.61-.29,12,12,0,0,0,1.43-.48,11.53,11.53,0,0,0,1.16-.55,8.87,8.87,0,0,0,.85-.52q-.37,3-.57,5.5c-.13,1.66-.19,3.15-.19,4.49,0,1.1,0,2.11,0,3s.05,1.83.1,2.68.11,1.67.2,2.46.2,1.58.33,2.38l.1.33a10.58,10.58,0,0,0-2.43.57,15.45,15.45,0,0,0-2.48,1.13l-.14.08.42-1.27c.15-.47.29-1,.44-1.46l-4.4,2.73a12.37,12.37,0,0,1-2-.79,15.13,15.13,0,0,1-2.43-1.47,13.5,13.5,0,0,1-2.27-2.09,8.69,8.69,0,0,1-1.58-2.71,12,12,0,0,1-.85-4.22c-.06-1.95-.16-3.66-.28-5.12a36.68,36.68,0,0,0-.46-3.71Z" transform="translate(-7.81 -126.43)"/><path class="cls-3" d="M243.2,159.73c.26-2,.45-3.85.57-5.51s.19-3.14.19-4.48c0-1.09,0-2.1,0-3s-.05-1.84-.11-2.69-.12-1.67-.21-2.46-.19-1.58-.31-2.39l-.1-.32a10.66,10.66,0,0,0,2.44-.57,16.37,16.37,0,0,0,2.48-1.13l.14-.08c-.14.38-.28.81-.42,1.27s-.3.95-.44,1.46l4.39-2.73a12.49,12.49,0,0,1,2,.77,14.73,14.73,0,0,1,2.41,1.44,14.21,14.21,0,0,1,2.3,2.11,8.18,8.18,0,0,1,1.62,2.74l-3.63,1.48a10.64,10.64,0,0,0-1.89-2.53,11.5,11.5,0,0,0-2.19-1.69,9.16,9.16,0,0,0-2.2-.94,7.43,7.43,0,0,0-2-.29,5.93,5.93,0,0,0-.84.06h0c-.06.49-.09,1.28-.11,2.35s0,2.46,0,4.15v.7a49.31,49.31,0,0,0,.84,9.75l.16.72a11.81,11.81,0,0,0-1.55.31,12,12,0,0,0-1.43.47,12.69,12.69,0,0,0-1.21.55A6.62,6.62,0,0,0,243.2,159.73Z" transform="translate(-7.81 -126.43)"/><path class="cls-3" d="M262.63,159.73q.44-3,.65-6.38t.21-7.1v-1.19c0-.36,0-.69,0-1l-.12-4.58c-1,0-1.88.08-2.74.17s-1.7.19-2.5.34a4.9,4.9,0,0,0,.51-1.2,9.48,9.48,0,0,0,.35-1.75l.32.1a7.46,7.46,0,0,0,1.57.25c.66,0,1.45.09,2.39.13-.07-1.25-.14-2.34-.22-3.27s-.18-1.73-.28-2.39l-.12-.68a11.88,11.88,0,0,0,2.43-.57,17.62,17.62,0,0,0,2.62-1.22,78.93,78.93,0,0,0-.78,8.17c1,0,2-.08,2.84-.17s1.69-.21,2.46-.35a8.8,8.8,0,0,0-.83,2.95l-.32-.08a9.83,9.83,0,0,0-1.74-.23l-2.49-.16,0,1.81c0,.6,0,1.22,0,1.87v.7q0,4.83.18,8.12a32.55,32.55,0,0,0,.56,5.12l.16.72a10.64,10.64,0,0,0-1.48.32,14.69,14.69,0,0,0-1.46.48c-.46.18-.88.36-1.25.55A5.81,5.81,0,0,0,262.63,159.73Z" transform="translate(-7.81 -126.43)"/><path class="cls-3" d="M281.53,159.85l-2.93-1.2a11.79,11.79,0,0,1-1.64-.8,15,15,0,0,1-1.53-1,12.19,12.19,0,0,1-1.31-1.12,5.88,5.88,0,0,1-.92-1.17l3.59-2.24a1.78,1.78,0,0,0,.52.95,5.91,5.91,0,0,0,1.55,1.11,19.11,19.11,0,0,0,2.76,1.18,35.45,35.45,0,0,0,4.18,1.11,6.56,6.56,0,0,0,1-3.29c0-1.39-.8-2.31-2.4-2.75l-.5-.14c-.31,0-.67-.11-1.08-.16l-1.35-.18a23.52,23.52,0,0,1-3.43-.66,9.41,9.41,0,0,1-2.55-1.08,5.15,5.15,0,0,1-1.63-1.54,4.11,4.11,0,0,1-.64-2.08,5.65,5.65,0,0,1,.19-1.14,5.73,5.73,0,0,1,.5-1.15,7.23,7.23,0,0,1,1-1.28,11.49,11.49,0,0,1,1.54-1.38l4.25-2.79c1,.4,1.85.76,2.57,1.08a19.83,19.83,0,0,1,1.91,1,10,10,0,0,1,1.46,1,11.7,11.7,0,0,1,1.27,1.27l-3.51,2.13a11.23,11.23,0,0,0-2-1.79q-1.37-1-5.82-1.76l0,0a3.94,3.94,0,0,0-.76,1.25,4.42,4.42,0,0,0-.3,1.66,1.88,1.88,0,0,0,.58,1.42,4.6,4.6,0,0,0,1.5.92,11.4,11.4,0,0,0,2.06.57c.76.13,1.5.24,2.22.34q6.06.63,7.18,3.41a5,5,0,0,1,.4,2,4.36,4.36,0,0,1-.1.94,4,4,0,0,1-.38,1,8,8,0,0,1-.79,1.22,14.91,14.91,0,0,1-1.34,1.49,7.44,7.44,0,0,1-.9.68Z" transform="translate(-7.81 -126.43)"/></g><g id="BLUE"><path class="cls-4" d="M14.36,158.28q.45-3.08.66-5.8c.15-1.82.22-3.54.22-5.15,0-1.88-.07-3.67-.23-5.37s-.33-3.33-.53-4.87l-.12-.68a10.66,10.66,0,0,0,2.44-.57,17.09,17.09,0,0,0,2.62-1.22q-.47,2.94-.69,5.38c-.16,1.63-.23,3.12-.23,4.46v.66c0,.2,0,.42,0,.66s0,.52,0,.84,0,.72.06,1.19L19,148a13.33,13.33,0,0,0,4.47.9,8.9,8.9,0,0,0,2.61-.38,7.86,7.86,0,0,0,2.21-1.09,6.29,6.29,0,0,0,1.62-1.75,6.83,6.83,0,0,0,.89-2.32c.08-.48.14-.93.19-1.35s.07-.82.07-1.2a9,9,0,0,0-.22-2,11.28,11.28,0,0,0-.59-1.81,9.58,9.58,0,0,0-.83-1.56,9.47,9.47,0,0,0-1-1.26,5.83,5.83,0,0,0-1.18-.92,8.93,8.93,0,0,0-1.61-.78,11,11,0,0,0-2-.54,11.92,11.92,0,0,0-2.3-.21,10.19,10.19,0,0,0-2.19.26,14.49,14.49,0,0,0-2.34.71,20.36,20.36,0,0,0-2.38,1.12,19.55,19.55,0,0,0-2.32,1.51l1.35-5.26,2.37-.94.88-.35c1.2-.32,2.23-.55,3.07-.71a12.43,12.43,0,0,1,2.09-.23,11.67,11.67,0,0,1,2.13.23,15.93,15.93,0,0,1,2.45.7A17.14,17.14,0,0,1,28.94,130a12.29,12.29,0,0,1,2.16,1.59,10.85,10.85,0,0,1,1.46,1.74,12.66,12.66,0,0,1,1.14,2.08,11.9,11.9,0,0,1,.75,2.3,12.26,12.26,0,0,1,.26,2.53,12.87,12.87,0,0,1-.25,2.08,15.33,15.33,0,0,1-.69,2.3,8.59,8.59,0,0,1-1.31,2.2,10.26,10.26,0,0,1-2,1.88,9.72,9.72,0,0,1-2.7,1.33,11.48,11.48,0,0,1-3.57.51,15.16,15.16,0,0,1-2.61-.22,22.84,22.84,0,0,1-2.58-.57l-.3-.06c.1,1.79.2,3.22.28,4.27a9.84,9.84,0,0,0,.28,2l.16.46a11.14,11.14,0,0,0-1.71.31,10.27,10.27,0,0,0-2.49,1C14.9,157.93,14.62,158.11,14.36,158.28Z" transform="translate(-7.81 -126.43)"/><path class="cls-4" d="M47.65,158.28A34.56,34.56,0,0,1,44,156.6a13.07,13.07,0,0,1-3.61-2.89A7,7,0,0,1,39.12,150v-.1A5.65,5.65,0,0,1,41.37,146a13.31,13.31,0,0,1,8.25-2.57q-6.12,2.25-7.09,5a3.54,3.54,0,0,0-.2,1.12,2.44,2.44,0,0,0,.64,1.65,12.1,12.1,0,0,0,2.91,2.33,18.2,18.2,0,0,0,6,2Zm-8.07-16.85a5.85,5.85,0,0,1,1.77-2.21l.94-.76,4.58-2.85a15.26,15.26,0,0,1,2.83,1.16,12.63,12.63,0,0,1,3,2.19,10,10,0,0,1,2.48,3.71,11.74,11.74,0,0,1,.85,4.21,56.86,56.86,0,0,0,.74,8.83l.16.72a12,12,0,0,0-5.06,1.85,76.92,76.92,0,0,0,.77-10.77V147a6.77,6.77,0,0,0-.73-3.49,8.43,8.43,0,0,0-3.49-2.91,29.4,29.4,0,0,0-5.94-1.8,3.44,3.44,0,0,0-.32,1.74,10.94,10.94,0,0,0,.26,2.05Z" transform="translate(-7.81 -126.43)"/><path class="cls-4" d="M62,158.28c.25-2,.44-3.85.57-5.51s.19-3.14.19-4.48c0-1.09,0-2.1,0-3s-.06-1.84-.11-2.69-.13-1.67-.21-2.46-.19-1.58-.31-2.39l-.1-.32a10.7,10.7,0,0,0,2.43-.57,16.37,16.37,0,0,0,2.48-1.13l.14-.08-.42,1.27c-.15.46-.29,1-.44,1.46l4.39-2.73a12.14,12.14,0,0,1,2,.77A14.8,14.8,0,0,1,75,137.82a15.1,15.1,0,0,1,2.3,2.11,8.32,8.32,0,0,1,1.61,2.74l-3.63,1.48a10.64,10.64,0,0,0-1.89-2.53,11.45,11.45,0,0,0-2.18-1.69A9.22,9.22,0,0,0,69,139,7.31,7.31,0,0,0,67,138.7a5.93,5.93,0,0,0-.84.06h0c-.05.49-.09,1.28-.11,2.35s0,2.46,0,4.15v.7a49.31,49.31,0,0,0,.84,9.75l.16.72a13.21,13.21,0,0,0-3,.78,12.69,12.69,0,0,0-1.21.55A6.42,6.42,0,0,0,62,158.28Z" transform="translate(-7.81 -126.43)"/><path class="cls-4" d="M93.36,166a70.15,70.15,0,0,0,.9-11q.06-3.74.06-5.28V149c0-.76,0-1.42,0-2s0-1-.1-1.45a5.08,5.08,0,0,0-.26-1.13,3.46,3.46,0,0,0-.54-1,8.09,8.09,0,0,0-1.44-1.62,9.07,9.07,0,0,0-1.87-1.24,19.07,19.07,0,0,0-2.54-1c-1-.32-2.1-.66-3.4-1a13.35,13.35,0,0,0-.89,1.89,13.94,13.94,0,0,0-.56,1.82,13.73,13.73,0,0,0-.27,1.71c0,.56-.07,1.1-.07,1.62a9,9,0,0,0,.33,2.44,8.67,8.67,0,0,0,1,2.2,8.44,8.44,0,0,0,1.56,1.88,8.91,8.91,0,0,0,2.16,1.43,23.21,23.21,0,0,0,2.56,1,32.05,32.05,0,0,0,3.4.91l-4.26,2.79a8.41,8.41,0,0,1-.89-.29,13.81,13.81,0,0,1-1.39-.62,17.48,17.48,0,0,1-1.68-1A13.29,13.29,0,0,1,83.37,155a10.25,10.25,0,0,1-1.55-1.77,8.67,8.67,0,0,1-1.12-2.21,16.6,16.6,0,0,1-.62-2.18,9.12,9.12,0,0,1-.21-2.08,10.3,10.3,0,0,1,.27-2.3,13,13,0,0,1,.69-2.24,10.63,10.63,0,0,1,1-1.9A4.84,4.84,0,0,1,83,139.08l.71-.6,4.57-2.85a8,8,0,0,1,1.37.49,17.47,17.47,0,0,1,1.62.81q.82.47,1.59,1A8.33,8.33,0,0,1,94.16,139c.59.63,1.1,1.21,1.53,1.73a9.34,9.34,0,0,1,1,1.6,7.19,7.19,0,0,1,.61,1.68,8.71,8.71,0,0,1,.2,2c0,.52,0,1.38-.1,2.57s-.1,2.81-.1,4.85v1.65a35,35,0,0,0,.42,5.56,10.19,10.19,0,0,0,3.65-2.11,5.67,5.67,0,0,0,.31.94,10.88,10.88,0,0,0,.55,1.17,12.39,12.39,0,0,0,.79,1.28,13.66,13.66,0,0,0,1,1.29l-.52,0c-.25,0-.74,0-1.45.11s-1.68.2-2.9.39a9.52,9.52,0,0,0-1.19.25c-.48.13-1,.29-1.54.49s-1.1.43-1.65.69A9.1,9.1,0,0,0,93.36,166Z" transform="translate(-7.81 -126.43)"/><path class="cls-4" d="M103.41,137.45a9.46,9.46,0,0,0,1.62-.29,12.31,12.31,0,0,0,2.59-1c.34-.19.62-.36.85-.52a69.61,69.61,0,0,0-.78,10.17c0,.58,0,1.09.07,1.55s0,.86.09,1.23a4.78,4.78,0,0,0,.2,1,3.88,3.88,0,0,0,.38.86,8.57,8.57,0,0,0,1.33,1.54,7.7,7.7,0,0,0,1.86,1.23,17.69,17.69,0,0,0,2.62,1c1,.31,2.22.62,3.64.91.05-.49.09-1.28.11-2.36s0-2.46,0-4.14v-.7c0-1.88-.1-3.62-.21-5.25a32.11,32.11,0,0,0-.63-4.5l-.16-.73a9.17,9.17,0,0,0,1.61-.29,12,12,0,0,0,1.43-.48,11.53,11.53,0,0,0,1.16-.55c.34-.19.62-.36.85-.52q-.37,3-.57,5.5c-.13,1.66-.19,3.15-.19,4.49,0,1.1,0,2.11,0,3.05s0,1.83.1,2.68.11,1.67.2,2.46.2,1.58.33,2.38l.1.33a10.78,10.78,0,0,0-2.44.57,15.36,15.36,0,0,0-2.47,1.13l-.14.08.42-1.27c.14-.47.29-.95.44-1.46l-4.4,2.73a12.37,12.37,0,0,1-2-.79A14.71,14.71,0,0,1,109,156a13.5,13.5,0,0,1-2.27-2.09,8.69,8.69,0,0,1-1.58-2.71,12,12,0,0,1-.85-4.22c-.06-1.95-.16-3.66-.28-5.12a36.07,36.07,0,0,0-.46-3.7Z" transform="translate(-7.81 -126.43)"/><path class="cls-4" d="M136.28,158.36a12.63,12.63,0,0,1-2.85-1.17,13.86,13.86,0,0,1-3-2.18A9.55,9.55,0,0,1,128,151.3a14,14,0,0,1-.86-4.22V147a11.25,11.25,0,0,1,1-4.43,11.09,11.09,0,0,1,2-3.11,9,9,0,0,1,1.2-1.08l4.22-2.77a32.4,32.4,0,0,1,3.63,1.68,13,13,0,0,1,3.61,2.89,7,7,0,0,1,1.28,3.71v.1a5.63,5.63,0,0,1-2.24,3.94,13.45,13.45,0,0,1-8.25,2.57q6.23-2.13,7.36-4.92a3,3,0,0,0,.24-1.14v-.08a2.48,2.48,0,0,0-.7-1.65,9.63,9.63,0,0,0-3.17-2.33,17.77,17.77,0,0,0-5.74-2,13.58,13.58,0,0,0-1.38,3.77,14.69,14.69,0,0,0-.48,3.41,7.79,7.79,0,0,0,.1,1.3,9,9,0,0,0,1.48,3.6,8.43,8.43,0,0,0,3.47,2.9,29.54,29.54,0,0,0,5.92,1.83l0,0a3.38,3.38,0,0,0,.32-1.75,10.08,10.08,0,0,0-.26-2l2.85,1.12a6,6,0,0,1-1.76,2.21c-.62.49-.93.75-.93.76Z" transform="translate(-7.81 -126.43)"/><path class="cls-4" d="M149.52,158.28c.3-2,.51-4.15.65-6.38s.21-4.6.21-7.1v-1.19c0-.36,0-.69,0-1l-.12-4.58c-1,0-1.87.09-2.74.17s-1.69.19-2.49.34a5.32,5.32,0,0,0,.51-1.2,10.39,10.39,0,0,0,.35-1.75l.32.1a7.46,7.46,0,0,0,1.57.25c.65,0,1.45.09,2.38.13-.06-1.25-.14-2.34-.22-3.27s-.17-1.73-.28-2.39l-.12-.68a11.82,11.82,0,0,0,2.44-.57,18.1,18.1,0,0,0,2.62-1.22,76.07,76.07,0,0,0-.79,8.17c1,0,2-.08,2.84-.17s1.7-.21,2.46-.35a8.79,8.79,0,0,0-.82,2.95l-.32-.08a10.1,10.1,0,0,0-1.75-.23l-2.49-.15c0,.6,0,1.2,0,1.8s0,1.22,0,1.87v.7q0,4.83.18,8.13a31.38,31.38,0,0,0,.56,5.11l.16.72a12.46,12.46,0,0,0-1.49.32,14.49,14.49,0,0,0-1.45.48c-.46.18-.88.36-1.26.55A6.39,6.39,0,0,0,149.52,158.28Z" transform="translate(-7.81 -126.43)"/><path class="cls-4" d="M194,148.59a2.77,2.77,0,0,1-.18.48,13.82,13.82,0,0,1-2.59,4c-.7.71-1.25,1.26-1.67,1.65a6.49,6.49,0,0,1-.84.72l-4.48,2.81a14.35,14.35,0,0,1-2.67-1.07,18.51,18.51,0,0,1-3.07-2,17.53,17.53,0,0,1-2.84-2.81,11.81,11.81,0,0,1-2-3.57,23.52,23.52,0,0,1-.81-2.92,12,12,0,0,1-.27-2.8,13.66,13.66,0,0,1,.47-3.53,17.9,17.9,0,0,1,1.3-3.47,16.71,16.71,0,0,1,2-3.06,12,12,0,0,1,2.49-2.32l4.45-2.87c.38.11.83.27,1.37.48a15.89,15.89,0,0,1,1.78.87,20.71,20.71,0,0,1,2.08,1.32,19,19,0,0,1,2.22,1.87,15.61,15.61,0,0,1,1.14,1.32l-4,2a14.05,14.05,0,0,0-1.85-2,11.22,11.22,0,0,0-2-1.38,12.76,12.76,0,0,0-2.27-1,26.57,26.57,0,0,0-2.68-.63l0,0q-1.73,1-2.63,5.32a25.79,25.79,0,0,0-.6,5.2A14.35,14.35,0,0,0,176,144a13.75,13.75,0,0,0,.85,2.84,13.94,13.94,0,0,0,1.56,2.77,12.61,12.61,0,0,0,2.36,2.5,15.76,15.76,0,0,0,3.29,2,18.31,18.31,0,0,0,4.34,1.3c1.24-1.1,1.86-2.82,1.86-5.18a11.13,11.13,0,0,0-.4-3.05Z" transform="translate(-7.81 -126.43)"/><path class="cls-4" d="M207.55,158.36a13.65,13.65,0,0,1-2.85-1.16,14,14,0,0,1-3-2.19,9.55,9.55,0,0,1-2.47-3.71,10.87,10.87,0,0,1-.86-4.22V147a11.25,11.25,0,0,1,1-4.43,10.85,10.85,0,0,1,2-3.11,10.09,10.09,0,0,1,1.2-1.08l4.26-2.79a16.22,16.22,0,0,1,2.87,1.22,14.18,14.18,0,0,1,3,2.17,9.8,9.8,0,0,1,2.51,3.83A13.19,13.19,0,0,1,216,147v.08a9.36,9.36,0,0,1-.88,4.4,13.55,13.55,0,0,1-2.29,3.33,3.5,3.5,0,0,0-.68.72Zm-4.89-19.82,0,0a18.27,18.27,0,0,0-1.24,3.63,13.45,13.45,0,0,0-.48,3.41,8.5,8.5,0,0,0,.1,1.3,8.84,8.84,0,0,0,1.48,3.6,8,8,0,0,0,3.48,2.9,32.17,32.17,0,0,0,5.91,1.83l0,0a25.17,25.17,0,0,0,1.14-4,14.16,14.16,0,0,0,.4-3.17,7.75,7.75,0,0,0-.1-1.35,8.72,8.72,0,0,0-5-6.48A17.91,17.91,0,0,0,202.66,138.54Z" transform="translate(-7.81 -126.43)"/><path class="cls-4" d="M220,137.45a9.46,9.46,0,0,0,1.62-.29,11.79,11.79,0,0,0,1.42-.48,10.57,10.57,0,0,0,1.16-.55,9.18,9.18,0,0,0,.86-.52,69.61,69.61,0,0,0-.78,10.17c0,.58.05,1.09.07,1.55s.05.86.09,1.23a4.78,4.78,0,0,0,.2,1,3.88,3.88,0,0,0,.38.86,8.57,8.57,0,0,0,1.33,1.54,7.7,7.7,0,0,0,1.86,1.23,17.69,17.69,0,0,0,2.62,1c1,.31,2.22.62,3.64.91.05-.49.09-1.28.11-2.36s0-2.46,0-4.14v-.7c0-1.88-.1-3.62-.21-5.25a32.11,32.11,0,0,0-.63-4.5l-.16-.73a9.17,9.17,0,0,0,1.61-.29,12,12,0,0,0,1.43-.48,11.53,11.53,0,0,0,1.16-.55c.34-.19.62-.36.85-.52q-.37,3-.57,5.5c-.13,1.66-.19,3.15-.19,4.49,0,1.1,0,2.11,0,3.05s0,1.83.1,2.68.11,1.67.2,2.46.2,1.58.33,2.38l.1.33a10.78,10.78,0,0,0-2.44.57,15.36,15.36,0,0,0-2.47,1.13l-.14.08L234,157c.14-.47.29-.95.44-1.46l-4.4,2.73a12.37,12.37,0,0,1-2-.79,15.13,15.13,0,0,1-2.43-1.47,13.5,13.5,0,0,1-2.27-2.09,8.69,8.69,0,0,1-1.58-2.71,12,12,0,0,1-.85-4.22c-.06-1.95-.16-3.66-.28-5.12a36.07,36.07,0,0,0-.46-3.7Z" transform="translate(-7.81 -126.43)"/><path class="cls-4" d="M244.65,158.28c.26-2,.45-3.85.57-5.51s.19-3.14.19-4.48c0-1.09,0-2.1,0-3s0-1.84-.11-2.69-.12-1.67-.21-2.46-.19-1.58-.31-2.39l-.1-.32a10.66,10.66,0,0,0,2.44-.57,16.83,16.83,0,0,0,2.48-1.13l.14-.08c-.14.39-.28.81-.42,1.27s-.3,1-.45,1.46l4.4-2.73a12.86,12.86,0,0,1,2,.77,14.73,14.73,0,0,1,2.41,1.44,14.21,14.21,0,0,1,2.3,2.11,8.18,8.18,0,0,1,1.62,2.74l-3.64,1.48a10.35,10.35,0,0,0-1.88-2.53,11.5,11.5,0,0,0-2.19-1.69,9.05,9.05,0,0,0-2.21-.94,7.3,7.3,0,0,0-1.94-.29,5.93,5.93,0,0,0-.84.06h0c-.05.49-.09,1.28-.11,2.35s0,2.46,0,4.15v.7a49.31,49.31,0,0,0,.84,9.75l.16.72a11.81,11.81,0,0,0-1.55.31,11.41,11.41,0,0,0-1.43.47c-.45.18-.85.36-1.22.55A7.13,7.13,0,0,0,244.65,158.28Z" transform="translate(-7.81 -126.43)"/><path class="cls-4" d="M264.08,158.28q.44-3,.65-6.38t.21-7.1v-1.19c0-.36,0-.69,0-1l-.12-4.58c-1,0-1.88.09-2.74.17s-1.7.19-2.5.34a4.9,4.9,0,0,0,.51-1.2,9.48,9.48,0,0,0,.35-1.75l.32.1a7.46,7.46,0,0,0,1.57.25c.65,0,1.45.09,2.39.13-.07-1.25-.14-2.34-.22-3.27s-.18-1.73-.28-2.39l-.12-.68a11.88,11.88,0,0,0,2.43-.57,17.62,17.62,0,0,0,2.62-1.22,78.93,78.93,0,0,0-.78,8.17c1,0,2-.08,2.84-.17s1.69-.21,2.46-.35a8.8,8.8,0,0,0-.83,2.95l-.32-.08a9.83,9.83,0,0,0-1.74-.23l-2.49-.15c0,.6,0,1.2,0,1.8s0,1.22,0,1.87v.7q0,4.83.18,8.13a32.55,32.55,0,0,0,.56,5.11l.16.72a11.91,11.91,0,0,0-1.48.32,14.69,14.69,0,0,0-1.46.48c-.46.18-.88.36-1.25.55A5.81,5.81,0,0,0,264.08,158.28Z" transform="translate(-7.81 -126.43)"/><path class="cls-4" d="M283,158.4l-2.93-1.2a11.79,11.79,0,0,1-1.64-.8,15,15,0,0,1-1.53-1,11.29,11.29,0,0,1-1.31-1.12,5.88,5.88,0,0,1-.92-1.17l3.59-2.24a1.78,1.78,0,0,0,.52.95,5.91,5.91,0,0,0,1.55,1.11,19.11,19.11,0,0,0,2.76,1.18,35.45,35.45,0,0,0,4.18,1.11,6.56,6.56,0,0,0,1-3.29c0-1.39-.8-2.31-2.4-2.75l-.51-.14c-.3-.05-.66-.11-1.07-.16l-1.35-.18a23.93,23.93,0,0,1-3.44-.66A9.47,9.47,0,0,1,277,147a5.15,5.15,0,0,1-1.63-1.54,4.11,4.11,0,0,1-.64-2.08,5.65,5.65,0,0,1,.19-1.14,5.73,5.73,0,0,1,.5-1.15,7.65,7.65,0,0,1,.95-1.28,12.3,12.3,0,0,1,1.55-1.38l4.25-2.79c1,.4,1.85.76,2.57,1.08a19.83,19.83,0,0,1,1.91,1,10.52,10.52,0,0,1,1.46,1.05,12.68,12.68,0,0,1,1.27,1.27l-3.51,2.13a11.23,11.23,0,0,0-2-1.79q-1.36-1-5.82-1.76l0,0a3.94,3.94,0,0,0-.76,1.25,4.42,4.42,0,0,0-.3,1.66,1.88,1.88,0,0,0,.58,1.42,4.44,4.44,0,0,0,1.5.92,11.4,11.4,0,0,0,2.06.57c.76.13,1.49.24,2.22.34,4,.43,6.43,1.56,7.18,3.41a5,5,0,0,1,.4,2,4.14,4.14,0,0,1-.48,2,7.53,7.53,0,0,1-.79,1.22,14.91,14.91,0,0,1-1.34,1.49,7.44,7.44,0,0,1-.9.68Z" transform="translate(-7.81 -126.43)"/></g><g id="GREEN"><path class="cls-5" d="M15.81,156.83c.29-2.05.52-4,.66-5.8s.22-3.54.22-5.15c0-1.88-.07-3.67-.23-5.37s-.33-3.33-.53-4.87l-.12-.68a10.66,10.66,0,0,0,2.44-.57,17.09,17.09,0,0,0,2.62-1.22q-.47,2.94-.69,5.38c-.16,1.63-.24,3.12-.24,4.46v.66c0,.2,0,.42,0,.66s0,.52,0,.84,0,.72.06,1.19l.39.18a13.28,13.28,0,0,0,4.47.9,8.9,8.9,0,0,0,2.61-.38A7.73,7.73,0,0,0,29.74,146a6.29,6.29,0,0,0,1.62-1.75,6.62,6.62,0,0,0,.88-2.32c.08-.48.15-.93.2-1.35s.07-.82.07-1.2a8.46,8.46,0,0,0-.23-1.95,10.35,10.35,0,0,0-.58-1.81,9.58,9.58,0,0,0-.83-1.56,9.47,9.47,0,0,0-1-1.26,5.83,5.83,0,0,0-1.18-.92,8.93,8.93,0,0,0-1.61-.78,11,11,0,0,0-2-.54,11.92,11.92,0,0,0-2.3-.21,10.19,10.19,0,0,0-2.19.26,14.49,14.49,0,0,0-2.34.71,20.36,20.36,0,0,0-2.38,1.12,19.55,19.55,0,0,0-2.32,1.51L15,128.66l2.37-.94c.53-.22.83-.33.88-.34,1.2-.33,2.23-.56,3.07-.72a12.43,12.43,0,0,1,2.09-.23,11.67,11.67,0,0,1,2.13.23,15.23,15.23,0,0,1,2.45.71,16.07,16.07,0,0,1,2.45,1.16,12.29,12.29,0,0,1,2.16,1.59A10.85,10.85,0,0,1,34,131.86a12.66,12.66,0,0,1,1.14,2.08,11.9,11.9,0,0,1,.75,2.3,12.26,12.26,0,0,1,.26,2.53,12.87,12.87,0,0,1-.25,2.08,14.31,14.31,0,0,1-.7,2.3,8.27,8.27,0,0,1-1.3,2.2,10.26,10.26,0,0,1-2,1.88,9.38,9.38,0,0,1-2.71,1.33,11.37,11.37,0,0,1-3.56.51,15.36,15.36,0,0,1-2.62-.22,23.17,23.17,0,0,1-2.57-.57l-.3-.06c.1,1.8.2,3.22.28,4.27a9.84,9.84,0,0,0,.28,2l.16.46a11.14,11.14,0,0,0-1.71.31,8.92,8.92,0,0,0-1.38.46,8.22,8.22,0,0,0-1.11.54C16.35,156.48,16.06,156.66,15.81,156.83Z" transform="translate(-7.81 -126.43)"/><path class="cls-5" d="M49.1,156.83a34.56,34.56,0,0,1-3.63-1.68,13.07,13.07,0,0,1-3.61-2.89,7,7,0,0,1-1.29-3.72v-.1a5.67,5.67,0,0,1,2.25-3.93,13.37,13.37,0,0,1,8.25-2.57Q45,144.19,44,147a3.54,3.54,0,0,0-.2,1.12,2.44,2.44,0,0,0,.64,1.65,12.1,12.1,0,0,0,2.91,2.33,18.13,18.13,0,0,0,6,2ZM41,140a5.85,5.85,0,0,1,1.77-2.21l.94-.76,4.58-2.85a15.26,15.26,0,0,1,2.83,1.16,12.63,12.63,0,0,1,3,2.19,10,10,0,0,1,2.48,3.71,11.74,11.74,0,0,1,.85,4.21,56.74,56.74,0,0,0,.74,8.83l.16.72a12,12,0,0,0-5.06,1.85,76.92,76.92,0,0,0,.77-10.77v-.55a6.9,6.9,0,0,0-.73-3.49,8.43,8.43,0,0,0-3.49-2.91,29.4,29.4,0,0,0-5.94-1.8,3.44,3.44,0,0,0-.32,1.74,10.94,10.94,0,0,0,.26,2Z" transform="translate(-7.81 -126.43)"/><path class="cls-5" d="M63.41,156.83c.25-2,.44-3.85.57-5.51s.19-3.14.19-4.48c0-1.09,0-2.1,0-3s-.06-1.84-.11-2.69-.13-1.67-.21-2.46-.19-1.58-.31-2.39l-.1-.32a10.7,10.7,0,0,0,2.43-.57,16.37,16.37,0,0,0,2.48-1.13l.14-.08L68,135.43c-.15.46-.29.95-.44,1.46L72,134.16a12.49,12.49,0,0,1,2,.77,14.8,14.8,0,0,1,2.42,1.44,15.1,15.1,0,0,1,2.3,2.11,8.32,8.32,0,0,1,1.61,2.74l-3.63,1.49a10.51,10.51,0,0,0-1.89-2.54,11.77,11.77,0,0,0-2.18-1.69,9.22,9.22,0,0,0-2.21-.94,7.31,7.31,0,0,0-2-.29,5.93,5.93,0,0,0-.84.06h0c0,.49-.09,1.28-.11,2.36s0,2.45,0,4.14v.7a49.31,49.31,0,0,0,.84,9.75l.16.72a13.21,13.21,0,0,0-3,.78,12.69,12.69,0,0,0-1.21.55A6.42,6.42,0,0,0,63.41,156.83Z" transform="translate(-7.81 -126.43)"/><path class="cls-5" d="M94.81,164.5a70.15,70.15,0,0,0,.9-11q.06-3.73.06-5.28v-.64c0-.76,0-1.42,0-2s0-1-.1-1.45a5.08,5.08,0,0,0-.26-1.13,3.46,3.46,0,0,0-.54-1,8.09,8.09,0,0,0-1.44-1.62,9.34,9.34,0,0,0-1.87-1.24,19.64,19.64,0,0,0-2.54-1c-1-.32-2.1-.66-3.4-1a13.35,13.35,0,0,0-.89,1.89,14.43,14.43,0,0,0-.56,1.82,13.73,13.73,0,0,0-.27,1.71c0,.56-.07,1.1-.07,1.62a9,9,0,0,0,.33,2.44,8.67,8.67,0,0,0,1,2.2,8.44,8.44,0,0,0,1.56,1.88,8.91,8.91,0,0,0,2.16,1.43,23.21,23.21,0,0,0,2.56,1,32.05,32.05,0,0,0,3.4.91l-4.26,2.79a8.41,8.41,0,0,1-.89-.29,13.81,13.81,0,0,1-1.39-.62,18.17,18.17,0,0,1-1.68-1,13.39,13.39,0,0,1-1.73-1.36,10.25,10.25,0,0,1-1.55-1.77,8.67,8.67,0,0,1-1.12-2.21,17.91,17.91,0,0,1-.63-2.18,9.71,9.71,0,0,1-.2-2.08,10.89,10.89,0,0,1,.26-2.3,14,14,0,0,1,.7-2.24,10,10,0,0,1,1-1.9,4.84,4.84,0,0,1,1.21-1.28l.71-.6,4.57-2.85a9,9,0,0,1,1.37.49,17.47,17.47,0,0,1,1.62.81q.83.47,1.59,1a8.86,8.86,0,0,1,1.26,1.06c.59.63,1.1,1.21,1.53,1.73a10,10,0,0,1,1,1.6,7.19,7.19,0,0,1,.61,1.68,9.31,9.31,0,0,1,.2,2c0,.52,0,1.38-.1,2.57s-.1,2.81-.1,4.86v1.64a35,35,0,0,0,.42,5.56,10.19,10.19,0,0,0,3.65-2.11,5.67,5.67,0,0,0,.31.94,10.88,10.88,0,0,0,.55,1.17,12.39,12.39,0,0,0,.79,1.28,12.24,12.24,0,0,0,1,1.29l-.52,0c-.25,0-.74,0-1.45.11s-1.69.2-2.9.39a9.17,9.17,0,0,0-1.19.25c-.48.13-1,.29-1.54.49s-1.1.43-1.65.69A9.1,9.1,0,0,0,94.81,164.5Z" transform="translate(-7.81 -126.43)"/><path class="cls-5" d="M104.86,136a9.46,9.46,0,0,0,1.62-.29,11.79,11.79,0,0,0,1.42-.48,11.53,11.53,0,0,0,1.16-.55,9.18,9.18,0,0,0,.86-.52,69.66,69.66,0,0,0-.79,10.17c0,.58.05,1.09.07,1.55s0,.86.09,1.23a4.77,4.77,0,0,0,.21,1,3.88,3.88,0,0,0,.38.86,8.19,8.19,0,0,0,1.33,1.54,7.7,7.7,0,0,0,1.86,1.23,17.69,17.69,0,0,0,2.62,1c1,.31,2.22.62,3.64.91,0-.49.09-1.28.11-2.36s0-2.45,0-4.14v-.7c0-1.88-.1-3.62-.21-5.25a32.11,32.11,0,0,0-.63-4.5l-.17-.73a9.29,9.29,0,0,0,1.62-.29,11.79,11.79,0,0,0,1.42-.48,10.78,10.78,0,0,0,1.17-.55c.34-.19.62-.36.85-.52-.25,2-.44,3.85-.57,5.51s-.19,3.14-.19,4.48c0,1.1,0,2.11,0,3s0,1.83.1,2.68.11,1.67.2,2.46.2,1.58.33,2.38l.1.32a11.38,11.38,0,0,0-2.44.58,15.36,15.36,0,0,0-2.47,1.13l-.15.08c.14-.39.28-.81.43-1.27s.29-.95.44-1.46l-4.4,2.73a12.37,12.37,0,0,1-2-.79,14.31,14.31,0,0,1-2.43-1.47,13.5,13.5,0,0,1-2.27-2.09,8.69,8.69,0,0,1-1.58-2.71,11.8,11.8,0,0,1-.85-4.22c-.06-2-.16-3.66-.28-5.12a36.07,36.07,0,0,0-.46-3.7Z" transform="translate(-7.81 -126.43)"/><path class="cls-5" d="M137.73,156.91a12.63,12.63,0,0,1-2.85-1.17,13.62,13.62,0,0,1-3-2.18,9.55,9.55,0,0,1-2.47-3.71,14,14,0,0,1-.86-4.22v-.08a11.29,11.29,0,0,1,1-4.43,11.09,11.09,0,0,1,2-3.11,9.07,9.07,0,0,1,1.2-1.08l4.22-2.77a33.27,33.27,0,0,1,3.63,1.68,13.18,13.18,0,0,1,3.61,2.89,7.07,7.07,0,0,1,1.28,3.71v.1a5.63,5.63,0,0,1-2.24,3.94,13.45,13.45,0,0,1-8.25,2.57q6.22-2.13,7.36-4.92a3,3,0,0,0,.24-1.14v-.08a2.48,2.48,0,0,0-.7-1.65,9.63,9.63,0,0,0-3.17-2.33,17.77,17.77,0,0,0-5.74-2,13.58,13.58,0,0,0-1.38,3.77,14.69,14.69,0,0,0-.48,3.41,7.79,7.79,0,0,0,.1,1.3,9,9,0,0,0,1.48,3.6,8.52,8.52,0,0,0,3.47,2.91,30.33,30.33,0,0,0,5.92,1.82l0,0a3.36,3.36,0,0,0,.32-1.74,10.08,10.08,0,0,0-.26-2.05l2.85,1.12a6,6,0,0,1-1.76,2.21c-.62.49-.93.75-.93.76Z" transform="translate(-7.81 -126.43)"/><path class="cls-5" d="M151,156.83c.3-2,.51-4.15.65-6.38s.21-4.6.21-7.1v-1.19c0-.36,0-.69,0-1l-.12-4.58c-1,0-1.87.09-2.74.17s-1.69.19-2.49.34a5.82,5.82,0,0,0,.51-1.2,10.39,10.39,0,0,0,.35-1.75l.32.1a7.46,7.46,0,0,0,1.57.25c.65.05,1.45.09,2.38.13-.06-1.25-.14-2.34-.22-3.27s-.17-1.73-.28-2.39l-.12-.68a11.82,11.82,0,0,0,2.44-.57,18.1,18.1,0,0,0,2.62-1.22,76.07,76.07,0,0,0-.79,8.17c1,0,2-.08,2.84-.17s1.7-.21,2.46-.35a8.79,8.79,0,0,0-.82,3l-.32-.08a10.1,10.1,0,0,0-1.75-.23l-2.49-.15,0,1.8c0,.6,0,1.23,0,1.87v.7q0,4.83.18,8.13a32.48,32.48,0,0,0,.57,5.11l.16.72a12.46,12.46,0,0,0-1.49.32,14.49,14.49,0,0,0-1.45.48c-.46.18-.88.36-1.26.55A6.39,6.39,0,0,0,151,156.83Z" transform="translate(-7.81 -126.43)"/><path class="cls-5" d="M195.4,147.14a2,2,0,0,1-.19.48,13.61,13.61,0,0,1-2.58,4c-.7.71-1.25,1.26-1.67,1.65a6.49,6.49,0,0,1-.84.72l-4.48,2.81a14.68,14.68,0,0,1-2.68-1.07,18.86,18.86,0,0,1-3.06-2,17.53,17.53,0,0,1-2.84-2.81,11.6,11.6,0,0,1-2-3.57,23.52,23.52,0,0,1-.81-2.92,12,12,0,0,1-.27-2.8,13.66,13.66,0,0,1,.47-3.53,17.9,17.9,0,0,1,1.3-3.47,16.71,16.71,0,0,1,2-3.06,12,12,0,0,1,2.49-2.32l4.45-2.87c.37.11.83.27,1.36.48a16.92,16.92,0,0,1,1.79.87,20.71,20.71,0,0,1,2.08,1.32,18.16,18.16,0,0,1,2.21,1.87,15.51,15.51,0,0,1,1.15,1.32l-4,2a14.63,14.63,0,0,0-1.85-2,11.22,11.22,0,0,0-2-1.38,12.76,12.76,0,0,0-2.27-.95,26.57,26.57,0,0,0-2.68-.63l0,0q-1.72,1-2.63,5.32a25.79,25.79,0,0,0-.6,5.2,14.35,14.35,0,0,0,.26,2.68,14,14,0,0,0,2.4,5.61,13,13,0,0,0,2.37,2.5,15.76,15.76,0,0,0,3.29,2,18.31,18.31,0,0,0,4.34,1.3c1.24-1.1,1.86-2.82,1.86-5.18a11.18,11.18,0,0,0-.4-3.05Z" transform="translate(-7.81 -126.43)"/><path class="cls-5" d="M209,156.91a14.06,14.06,0,0,1-5.86-3.35,9.55,9.55,0,0,1-2.47-3.71,10.87,10.87,0,0,1-.86-4.22v-.08a11.29,11.29,0,0,1,1-4.43,10.85,10.85,0,0,1,2-3.11,9.37,9.37,0,0,1,1.2-1.08l4.26-2.79a16.22,16.22,0,0,1,2.87,1.22,14.18,14.18,0,0,1,3,2.17,9.67,9.67,0,0,1,2.5,3.83,13,13,0,0,1,.83,4.17v.08a9.23,9.23,0,0,1-.89,4.4,13.59,13.59,0,0,1-2.28,3.33,3.77,3.77,0,0,0-.68.72Zm-4.9-19.82,0,0a18.27,18.27,0,0,0-1.24,3.63,13.45,13.45,0,0,0-.48,3.41,8.5,8.5,0,0,0,.1,1.3,8.84,8.84,0,0,0,1.48,3.6,8.1,8.1,0,0,0,3.48,2.91,33.08,33.08,0,0,0,5.91,1.82l0,0a23.85,23.85,0,0,0,1.15-4,14.16,14.16,0,0,0,.4-3.17,7.75,7.75,0,0,0-.1-1.35,8.79,8.79,0,0,0-5-6.48A17.9,17.9,0,0,0,204.1,137.09Z" transform="translate(-7.81 -126.43)"/><path class="cls-5" d="M221.42,136a9.46,9.46,0,0,0,1.62-.29,11.79,11.79,0,0,0,1.42-.48,10.57,10.57,0,0,0,1.16-.55,9.18,9.18,0,0,0,.86-.52,69.66,69.66,0,0,0-.79,10.17c0,.58.06,1.09.07,1.55s.05.86.1,1.23a4.78,4.78,0,0,0,.2,1,3.88,3.88,0,0,0,.38.86,8.57,8.57,0,0,0,1.33,1.54,7.7,7.7,0,0,0,1.86,1.23,17.69,17.69,0,0,0,2.62,1c1,.31,2.22.62,3.64.91.05-.49.09-1.28.11-2.36s0-2.45,0-4.14v-.7c0-1.88-.1-3.62-.21-5.25a32.11,32.11,0,0,0-.63-4.5L235,136a9.34,9.34,0,0,0,1.61-.29,11.22,11.22,0,0,0,1.42-.48,10.78,10.78,0,0,0,1.17-.55c.34-.19.62-.36.85-.52-.25,2-.44,3.85-.57,5.51s-.19,3.14-.19,4.48c0,1.1,0,2.11,0,3s.05,1.83.1,2.68.11,1.67.2,2.46.2,1.58.33,2.38l.1.32a11.38,11.38,0,0,0-2.44.58,15.36,15.36,0,0,0-2.47,1.13l-.14.08.42-1.27c.14-.46.29-.95.44-1.46l-4.4,2.73a12.37,12.37,0,0,1-2-.79,14.31,14.31,0,0,1-2.43-1.47,13.5,13.5,0,0,1-2.27-2.09,8.69,8.69,0,0,1-1.58-2.71,11.8,11.8,0,0,1-.85-4.22c-.06-2-.16-3.66-.28-5.12a36.07,36.07,0,0,0-.46-3.7Z" transform="translate(-7.81 -126.43)"/><path class="cls-5" d="M246.1,156.83c.25-2,.44-3.85.57-5.51s.19-3.14.19-4.48c0-1.09,0-2.1,0-3s-.05-1.84-.11-2.69-.12-1.67-.21-2.46-.19-1.58-.31-2.39l-.1-.32a10.66,10.66,0,0,0,2.44-.57,16.83,16.83,0,0,0,2.48-1.13l.14-.08c-.14.39-.28.81-.42,1.27s-.3.95-.45,1.46l4.4-2.73a12.86,12.86,0,0,1,2,.77,14.57,14.57,0,0,1,4.71,3.55,8.35,8.35,0,0,1,1.62,2.74l-3.64,1.49a10.48,10.48,0,0,0-1.88-2.54,11.5,11.5,0,0,0-2.19-1.69,9.05,9.05,0,0,0-2.21-.94,7.3,7.3,0,0,0-1.94-.29,6.18,6.18,0,0,0-.85.06h0c0,.49-.09,1.28-.11,2.36s0,2.45,0,4.14v.7a48.5,48.5,0,0,0,.85,9.75l.16.72a11.81,11.81,0,0,0-1.55.31,10.9,10.9,0,0,0-1.43.47,12.93,12.93,0,0,0-1.22.55A6.42,6.42,0,0,0,246.1,156.83Z" transform="translate(-7.81 -126.43)"/><path class="cls-5" d="M265.52,156.83q.45-3,.66-6.38t.21-7.1v-1.19c0-.36,0-.69,0-1l-.12-4.58c-1,0-1.88.09-2.74.17s-1.7.19-2.5.34a4.9,4.9,0,0,0,.51-1.2,10.39,10.39,0,0,0,.35-1.75l.32.1a7.46,7.46,0,0,0,1.57.25c.65.05,1.45.09,2.39.13-.07-1.25-.14-2.34-.22-3.27s-.18-1.73-.29-2.39l-.12-.68a11.82,11.82,0,0,0,2.44-.57,18.1,18.1,0,0,0,2.62-1.22,78.93,78.93,0,0,0-.78,8.17c1,0,2-.08,2.84-.17s1.69-.21,2.46-.35a8.58,8.58,0,0,0-.83,3L274,137a9.83,9.83,0,0,0-1.74-.23l-2.49-.15q0,.9,0,1.8c0,.6,0,1.23,0,1.87v.7q0,4.83.18,8.13a31.51,31.51,0,0,0,.56,5.11l.16.72a11.91,11.91,0,0,0-1.48.32,14.69,14.69,0,0,0-1.46.48c-.46.18-.88.36-1.25.55A6,6,0,0,0,265.52,156.83Z" transform="translate(-7.81 -126.43)"/><path class="cls-5" d="M284.43,157l-2.93-1.2a12.94,12.94,0,0,1-1.64-.79,16.94,16.94,0,0,1-1.53-1,11.29,11.29,0,0,1-1.31-1.12,5.88,5.88,0,0,1-.92-1.17l3.59-2.24a1.78,1.78,0,0,0,.52,1,5.91,5.91,0,0,0,1.55,1.11,18.63,18.63,0,0,0,2.76,1.18,35.45,35.45,0,0,0,4.18,1.11,6.56,6.56,0,0,0,1-3.29c0-1.39-.8-2.31-2.41-2.75l-.5-.14c-.31-.05-.66-.11-1.07-.16l-1.35-.18a23.93,23.93,0,0,1-3.44-.66,9.47,9.47,0,0,1-2.54-1.08,5.15,5.15,0,0,1-1.63-1.54,4.11,4.11,0,0,1-.64-2.08,5.65,5.65,0,0,1,.19-1.14,5.73,5.73,0,0,1,.5-1.15,7.14,7.14,0,0,1,.95-1.28,12.3,12.3,0,0,1,1.55-1.38l4.25-2.79c1,.4,1.85.76,2.57,1.08a19.83,19.83,0,0,1,1.91,1,10.52,10.52,0,0,1,1.46,1.05,12.68,12.68,0,0,1,1.27,1.27l-3.52,2.13a10.79,10.79,0,0,0-2-1.79q-1.36-1-5.82-1.76l0,0a3.94,3.94,0,0,0-.76,1.25,4.42,4.42,0,0,0-.3,1.66,1.88,1.88,0,0,0,.58,1.42,4.34,4.34,0,0,0,1.5.92,11.4,11.4,0,0,0,2.06.57c.75.13,1.49.24,2.22.34,4,.43,6.43,1.56,7.18,3.41a5,5,0,0,1,.4,2,4.14,4.14,0,0,1-.48,2,8,8,0,0,1-.79,1.23,16.14,16.14,0,0,1-1.34,1.48,7.44,7.44,0,0,1-.9.68Z" transform="translate(-7.81 -126.43)"/></g></svg>