<?xml version="1.0" encoding="utf-8"?>
<!-- Generator: Adobe Illustrator 23.1.1, SVG Export Plug-In . SVG Version: 6.00 Build 0)  -->
<svg version="1.1" xmlns="http://www.w3.org/2000/svg" xmlns:xlink="http://www.w3.org/1999/xlink" x="0px" y="0px"
	 viewBox="0 0 283.6 65.7" style="enable-background:new 0 0 283.6 65.7;" xml:space="preserve">
<style type="text/css">
	.st0{fill:#FEF1D0;}
	.st1{font-family:'Amador';}
	.st2{font-size:52.2px;}
	.st3{letter-spacing:-1;}
	.st4{fill:#D78029;}
	.st5{fill:#58A5DB;}
	.st6{fill:#007250;}
</style>
<g id="Layer_4">
	<g id="SHELL">
		<text transform="matrix(1 0 0 1 1.84 51.23)" class="st0 st1 st2">Pa</text>
		<text transform="matrix(1 0 0 1 57.75 51.23)" class="st0 st1 st2 st3">r</text>
		<text transform="matrix(1 0 0 1 74.04 51.23)" class="st0 st1 st2">quet Courts</text>
	</g>
</g>
<g id="Layer_3">
	<g id="ORANGE">
		<text transform="matrix(1 0 0 1 3.68 49.39)" class="st4 st1 st2">Pa</text>
		<text transform="matrix(1 0 0 1 59.59 49.39)" class="st4 st1 st2 st3">r</text>
		<text transform="matrix(1 0 0 1 75.88 49.39)" class="st4 st1 st2">quet Courts</text>
	</g>
</g>
<g id="Layer_2">
	<g id="BLUE">
		<text transform="matrix(1 0 0 1 5.52 47.55)" class="st5 st1 st2">Pa</text>
		<text transform="matrix(1 0 0 1 61.43 47.55)" class="st5 st1 st2 st3">r</text>
		<text transform="matrix(1 0 0 1 77.72 47.55)" class="st5 st1 st2">quet Courts</text>
	</g>
</g>
<g id="Layer_1">
	<g id="GREEN">
		<text transform="matrix(1 0 0 1 7.37 45.7)" class="st6 st1 st2">Pa</text>
		<text transform="matrix(1 0 0 1 63.28 45.7)" class="st6 st1 st2 st3">r</text>
		<text transform="matrix(1 0 0 1 79.57 45.7)" class="st6 st1 st2">quet Courts</text>
	</g>
</g>
</svg>
